<svg width="175" height="56" viewBox="0 0 175 56" fill="none" xmlns="http://www.w3.org/2000/svg">
<path d="M58.4357 0.0307164C57.9616 0.111877 57.6625 0.240026 57.449 0.453607C57.2995 0.603113 57.2439 0.697089 57.2183 0.829509C57.167 1.14988 57.2567 1.4788 57.513 1.88033C57.5899 1.99993 57.6839 2.2306 57.7223 2.39719C57.8206 2.80727 58.0513 3.24297 58.3289 3.55907C58.4571 3.70004 58.5639 3.85809 58.5639 3.90508C58.5639 4.08021 58.7903 4.75513 58.9526 5.0755C59.0508 5.25491 59.2345 5.52402 59.3712 5.66925L59.6147 5.93409L59.5378 6.30145C59.4481 6.74997 59.4395 7.45906 59.525 7.85205C59.5549 8.0101 59.6446 8.26213 59.7172 8.41163L59.8539 8.68075L59.7257 8.93704C59.4865 9.41119 59.3968 9.77855 59.4011 10.2783C59.4011 10.6329 59.4225 10.7738 59.4951 10.9618C59.5506 11.1028 59.589 11.2907 59.589 11.4317C59.589 11.7905 59.7044 12.5209 59.8283 12.9481C60.0461 13.7127 60.3836 14.3107 60.9004 14.8532C61.6095 15.5965 62.6732 16.1048 63.7966 16.2415C64.0443 16.2714 64.0486 16.2714 63.9034 16.3056C63.8222 16.3269 63.4463 16.4124 63.0704 16.4978C61.6693 16.8139 60.6911 17.2069 60.264 17.6255C60.0376 17.8476 60.0205 17.8775 59.9948 18.1168C59.9521 18.467 59.8539 18.6806 59.5976 18.9625C59.3712 19.2103 59.2601 19.4751 59.3157 19.646C59.3285 19.6973 59.3926 19.804 59.4524 19.8852C59.5848 20.0603 59.7172 20.5516 59.7172 20.8634C59.7172 21.0343 59.6873 21.1411 59.6019 21.2906C59.5036 21.4529 59.4823 21.5426 59.4865 21.7562C59.4865 22.0381 59.5164 22.0979 59.8283 22.4781C60.1572 22.8882 60.2597 23.3495 60.1273 23.8621C59.9649 24.5028 60.0205 24.9513 60.3152 25.3742C60.4434 25.5536 60.4818 25.6604 60.5074 25.8697C60.5245 26.0192 60.5758 26.2157 60.6185 26.314C60.7296 26.5575 60.721 26.6557 60.563 26.9761C60.4434 27.2238 60.4263 27.3007 60.4263 27.6211C60.4263 28.0397 60.4989 28.2191 60.7723 28.484C60.9346 28.6378 61.3191 28.8599 61.4301 28.8599C61.554 28.8599 61.9342 29.1204 62.0837 29.2999C62.2759 29.5391 62.4425 29.8979 62.5023 30.2183L62.5493 30.466L62.7799 30.5173C63.0576 30.5728 63.9931 30.9444 64.7748 31.3032L65.3344 31.5595L65.6761 31.5382C65.8811 31.5254 66.2271 31.457 66.539 31.363C67.0815 31.205 67.8717 30.9231 67.9315 30.8675C67.9529 30.8505 67.8888 30.6796 67.7948 30.4874C67.6496 30.2012 67.6026 30.1414 67.5172 30.1414C67.4275 30.1414 67.4147 30.1157 67.3933 29.915C67.3463 29.5305 67.2481 29.3084 67.0729 29.1888C66.9832 29.1333 66.8679 29.0692 66.8081 29.0521C66.7483 29.035 66.5304 28.9368 66.3168 28.8342C65.9239 28.642 65.7145 28.437 65.6334 28.1764C65.6163 28.1166 65.548 27.9842 65.4839 27.8774C65.2105 27.4374 65.202 26.8736 65.4583 26.2884L65.5522 26.0791L65.4155 25.6647C65.3386 25.4383 65.2233 25.1137 65.1507 24.9513C64.8645 24.285 64.8261 23.8834 64.9926 23.2641C65.0268 23.1359 65.0567 22.9864 65.0567 22.9309C65.0567 22.8241 64.7833 22.3926 64.5655 22.1534C64.4373 22.0167 64.4245 21.9698 64.3775 21.534L64.3263 21.0642L64.4501 20.6968C64.5698 20.3465 64.574 20.3209 64.5185 20.0561C64.4886 19.9066 64.3946 19.6503 64.3135 19.4879C64.228 19.3299 64.1597 19.1676 64.1597 19.1291C64.1597 18.9583 64.3391 18.4884 64.4416 18.3901C64.574 18.2663 64.8431 17.7494 64.8431 17.617C64.8431 17.4162 64.9328 17.2026 65.0952 17.0189C65.2788 16.8139 65.8811 16.4594 66.3467 16.2842C66.7355 16.139 67.4488 15.8186 67.4488 15.7887C67.4488 15.7759 67.2908 15.7118 67.0986 15.6392C66.6714 15.4897 66.2955 15.2548 65.8811 14.8831C65.4796 14.52 65.2575 14.2424 64.9371 13.6914C64.5527 13.025 64.3946 12.5466 64.2408 11.6025C64.1682 11.1412 64.0657 10.65 63.9888 10.4278C63.8436 10.0007 63.8308 9.78282 63.9205 9.18907C63.9632 8.89006 64.0102 8.74482 64.1298 8.53551L64.2836 8.27067L64.0614 7.348L63.835 6.42533L63.8863 5.94691C63.9119 5.68634 63.9247 5.4514 63.9119 5.43004C63.8991 5.40441 63.7496 5.20365 63.583 4.98152C63.2925 4.59708 63.2669 4.54155 63.0747 3.93498L62.8739 3.29423L62.5621 3.00376C62.246 2.71757 62.246 2.71329 62.0666 2.21351C61.9683 1.93586 61.7291 1.40191 61.5369 1.026L61.1824 0.346816L60.5459 0.180223C59.9692 0.0307164 59.8496 0.0136299 59.29 0.000815021C58.9483 -0.0034566 58.5639 0.00935826 58.4357 0.0307164Z" fill="#4066AF"/>
<path d="M65.9111 0.154563C65.3088 0.193008 65.1934 0.214366 64.8389 0.376687C64.6082 0.479206 64.5441 0.534737 64.463 0.684244C64.3348 0.914911 64.3519 1.20965 64.51 1.50867C64.7535 1.98282 64.8004 2.07252 64.9628 2.42706C65.061 2.63637 65.2575 2.93966 65.4113 3.13188C65.659 3.43517 65.6889 3.4907 65.7146 3.72136C65.7829 4.26386 66.3382 5.18653 66.7825 5.48982L66.9662 5.61796L66.8807 5.99387C66.8209 6.26298 66.7953 6.53209 66.791 6.94644C66.791 7.50175 66.7953 7.53592 66.932 7.88192C67.0089 8.07842 67.1413 8.31336 67.2182 8.39879C67.2993 8.48849 67.3634 8.56965 67.3634 8.58674C67.3634 8.60383 67.2694 8.82168 67.1498 9.0737C67.0302 9.33 66.9021 9.68882 66.8594 9.89813C66.7867 10.2185 66.7867 10.2868 66.8337 10.4833C66.8679 10.6072 66.932 10.7824 66.979 10.8763C67.0388 10.9917 67.0644 11.1284 67.0644 11.312C67.0687 11.8759 67.1712 12.4098 67.4061 13.0335C67.53 13.3624 67.6496 13.67 67.6752 13.717C67.8034 13.9647 68.2562 14.4944 68.521 14.7037C69.0464 15.1223 70.0545 15.5281 70.738 15.5965C70.8918 15.6136 71.1609 15.6605 71.336 15.7075C71.6393 15.7801 72.6346 16.1304 72.7798 16.2116C72.8567 16.2543 72.8653 16.25 71.9554 16.4764C71.3574 16.6259 69.7683 17.2111 69.2173 17.4888C69.0336 17.5828 68.7261 17.7109 68.5381 17.775C68.2006 17.8946 67.7863 18.1552 67.7137 18.3004C67.6923 18.3388 67.6496 18.5054 67.624 18.672C67.5813 18.9198 67.53 19.0351 67.3378 19.3256L67.1071 19.6759L67.2609 20.2013C67.4787 20.9317 67.4958 21.2777 67.3378 21.7177L67.2182 22.0552L67.3463 22.2217C67.5556 22.4951 67.735 22.7984 67.8504 23.0889C67.9444 23.3196 67.9614 23.4306 67.9614 23.7809C67.9614 24.0116 67.9401 24.3405 67.9187 24.5199C67.8717 24.8317 67.876 24.8488 68.0042 25.1478C68.0725 25.3144 68.1878 25.5194 68.2562 25.5963C68.3502 25.7031 68.3886 25.7971 68.41 25.985C68.427 26.1217 68.4783 26.378 68.5296 26.5489L68.6193 26.8693L68.5039 27.4289C68.3416 28.2148 68.3416 28.2234 68.615 28.4241C68.7346 28.5138 69.0123 28.6505 69.2258 28.7274C69.6017 28.8598 69.6231 28.8769 69.8709 29.1717C70.0075 29.3425 70.1741 29.5689 70.2382 29.68C70.3493 29.8722 70.3535 29.9021 70.3279 30.278L70.3023 30.6753L70.7636 30.8504C71.0199 30.9487 71.4855 31.111 71.8016 31.2092L72.374 31.3886L72.72 31.3374C73.4291 31.2391 75.5649 30.5001 75.5649 30.3592C75.5649 30.1883 75.3855 29.5732 75.3001 29.4365C75.2189 29.3126 75.0822 29.2187 74.5739 28.9624C74.0229 28.6804 73.9289 28.6164 73.7922 28.437C73.6171 28.1935 73.4932 27.9244 73.4505 27.698C73.412 27.5015 73.5402 26.7967 73.647 26.6087C73.7153 26.4891 73.7153 26.4506 73.6641 26.2584C73.6341 26.1388 73.5957 25.9423 73.5786 25.8185C73.5573 25.6647 73.4975 25.5066 73.3864 25.3358C73.2711 25.1563 73.2027 24.9769 73.1472 24.7206C73.0788 24.3832 73.0746 24.3362 73.1472 23.8022C73.2582 22.9437 73.2711 23.0376 72.9122 22.4909C72.7328 22.2217 72.5662 21.9142 72.5363 21.8031C72.4851 21.6152 72.4894 21.581 72.6389 21.1282C72.8311 20.5473 72.8225 20.4234 72.5449 19.8724L72.3569 19.4922L72.4296 19.1974C72.4851 18.9668 72.5406 18.8514 72.6901 18.6806C72.9336 18.3986 73.0703 18.1295 73.1087 17.8604C73.1258 17.7408 73.2027 17.5443 73.2753 17.4204C73.4248 17.1642 73.647 17.0104 74.2194 16.7754C74.8943 16.4935 75.7828 16.0749 75.7486 16.045C75.7315 16.0279 75.6119 15.9766 75.488 15.9254C75.3642 15.8741 75.0523 15.699 74.796 15.5281C74.0741 15.0625 73.5658 14.4346 73.0917 13.4393C72.8781 12.9908 72.8781 12.9908 72.8354 12.3714C72.7713 11.4701 72.7158 11.0985 72.5961 10.7524C72.5235 10.5389 72.4851 10.3039 72.4637 9.94511L72.4338 9.44533L72.6389 9.00536L72.8396 8.56538L72.6602 7.93745C72.4637 7.24972 72.4637 7.19846 72.5833 6.23735L72.6303 5.8529L72.2416 5.34031C71.87 4.84907 71.8486 4.81063 71.6735 4.25959C71.524 3.79398 71.4471 3.63166 71.2805 3.40527C71.0584 3.10625 70.9687 2.92684 70.7935 2.43988C70.738 2.27329 70.5928 1.9401 70.4774 1.69235L70.2638 1.24383L69.9136 1.10713C69.354 0.889282 68.6235 0.637256 68.064 0.479206C67.5343 0.325428 66.5475 0.107575 66.4536 0.12039C66.4279 0.124662 66.1802 0.137477 65.9111 0.154563Z" fill="#4066AF"/>
<path d="M74.497 0.36819C74.1809 0.406635 73.7537 0.547598 73.6384 0.650117C73.5957 0.688562 73.5402 0.786809 73.5145 0.863698C73.4718 0.996118 73.4846 1.05592 73.664 1.48735C73.7751 1.75219 73.9716 2.26479 74.0955 2.62788C74.2663 3.1063 74.3817 3.35832 74.5226 3.56763C74.638 3.72568 74.8046 4.05887 74.9114 4.3408C75.1933 5.06697 75.488 5.59665 75.7913 5.90421L76.0433 6.16905L75.9536 6.59194C75.7828 7.39928 75.8468 8.12545 76.1416 8.66367L76.3253 8.98832L76.1758 9.24889C75.9963 9.56926 75.8426 10.0733 75.8041 10.4791C75.7785 10.7397 75.7913 10.8379 75.881 11.1412C75.9451 11.3591 76.0049 11.7093 76.0348 12.0511C76.1202 13.0592 76.3936 13.8793 76.8678 14.5542C77.1027 14.8917 77.5512 15.353 77.7947 15.5068C77.9656 15.6093 79.1744 15.9468 80.4346 16.2373C81.1052 16.391 81.6861 16.532 81.7289 16.5491C81.7758 16.5704 81.3188 16.6986 80.4474 16.9164C79.4265 17.1685 78.9352 17.3137 78.4653 17.5017C77.564 17.8605 76.9916 18.121 76.6755 18.3303C76.4064 18.5012 76.3893 18.5183 76.3338 18.7575C76.2911 18.9369 76.1971 19.1121 76.0006 19.394L75.723 19.7827L75.7999 19.9749C76.0818 20.7096 76.0946 20.7566 76.0903 21.1539C76.0861 21.4614 76.0647 21.5939 75.975 21.8117L75.8639 22.0808L76.1373 22.555C76.5132 23.2085 76.5004 23.1786 76.5517 23.5417C76.5858 23.798 76.5816 23.9347 76.5303 24.1953C76.4961 24.3747 76.4577 24.6011 76.4449 24.6993C76.415 24.9257 76.5388 25.3785 76.7012 25.622C76.7823 25.7416 76.872 25.9936 76.9489 26.2926C77.0685 26.754 77.0728 26.7882 77.0173 27.0615C76.9874 27.2153 76.9276 27.446 76.8848 27.5741C76.761 27.9244 76.7781 28.091 76.9446 28.249C77.0173 28.3217 77.1668 28.4242 77.2736 28.4754C77.5811 28.6292 77.9997 28.9368 78.3073 29.2358L78.5892 29.5134L78.7473 30.0773L78.9096 30.6412L79.2769 30.7565C79.734 30.906 80.4858 31.2178 81.071 31.504C81.6007 31.7646 81.7331 31.7731 82.3995 31.6151C83.6554 31.3118 85.1846 30.654 86.0304 30.0559C86.6327 29.6288 87.4998 28.83 88.7343 27.557C89.3409 26.9334 89.8535 26.4251 89.8663 26.4251C89.8834 26.4251 90.0585 26.6899 90.2593 27.0103C90.6309 27.6126 91.2161 28.4285 91.5963 28.8812C91.9295 29.2785 92.6386 29.9919 92.9718 30.2695C93.8047 30.9573 95.7782 32.0465 96.6325 32.2943L96.9871 32.3968L97.7261 32.2516C98.6359 32.0764 99.5629 31.9355 99.8491 31.9355C100.302 31.9355 100.366 31.9056 100.473 31.6621C100.733 31.047 101.348 30.6241 102.092 30.5472C102.459 30.5087 102.685 30.4148 102.967 30.1841C103.142 30.0389 103.219 29.9363 103.288 29.7655C103.382 29.5134 103.403 29.1717 103.335 28.9453C103.254 28.6805 103.275 28.484 103.42 28.2789C103.493 28.1722 103.608 27.9628 103.676 27.8133C103.762 27.6211 103.86 27.4887 104.018 27.3563C104.138 27.258 104.279 27.0957 104.334 27.0017C104.458 26.7882 104.569 26.2499 104.569 25.874C104.569 25.3572 104.83 24.9129 105.317 24.6011C105.411 24.5413 105.552 24.4003 105.629 24.285L105.77 24.0714L105.74 23.5674L105.71 23.059L105.872 22.7344C106.017 22.4354 106.244 22.1534 106.329 22.1534C106.385 22.1534 106.491 21.8758 106.491 21.7348C106.491 21.6708 106.436 21.5255 106.368 21.4187C106.137 21.0514 106.064 20.8421 106.06 20.4918C106.056 20.3124 106.043 20.1244 106.03 20.0732C105.975 19.8852 105.535 19.4495 105.15 19.1932C104.655 18.8686 103.497 18.3004 102.647 17.9673L101.985 17.7067L102.626 17.7323C103.629 17.775 104.356 17.6597 105.18 17.3222C105.864 17.0446 106.308 16.7413 106.816 16.2116C107.341 15.6563 107.7 15.0369 108.012 14.1356C108.115 13.8409 108.239 13.5547 108.286 13.5034C108.409 13.3753 108.567 12.9567 108.632 12.5936C108.687 12.2646 108.666 12.0553 108.512 11.436L108.448 11.1668L108.619 10.9874C109.076 10.5133 109.353 9.71022 109.353 8.85163V8.53125L109.618 8.3732C110.148 8.05283 110.601 7.54878 110.913 6.94648C111.024 6.72863 111.101 6.63893 111.263 6.54068C111.694 6.27157 112.1 5.84441 112.314 5.43006C112.373 5.31045 112.544 5.10114 112.69 4.96018C112.869 4.78504 112.993 4.61418 113.078 4.43477C113.194 4.18275 113.198 4.1443 113.155 3.93926C113.057 3.46511 112.463 3.11057 111.323 2.85C110.823 2.73467 110.665 2.71758 110.148 2.71758C108.743 2.71758 106.098 3.06785 104.526 3.46084C103.604 3.69578 101.78 4.29808 100.904 4.6569C98.7726 5.54112 96.6026 6.81406 94.8726 8.20234C93.5399 9.27024 91.8868 10.9191 90.9257 12.145C90.8103 12.2946 90.6993 12.4013 90.6779 12.3885C90.6565 12.3757 90.5327 12.1493 90.4045 11.8887C90.0115 11.107 89.6271 10.4578 89.2384 9.93662C89.0376 9.6675 88.6019 9.05239 88.2687 8.57397C86.9701 6.71154 84.9838 4.81067 82.8907 3.43094C81.2974 2.38439 79.8707 1.70948 77.4444 0.855155C76.7225 0.598858 75.9707 0.427993 75.4239 0.389548C75.2317 0.376733 75.0053 0.359647 74.9242 0.351104C74.843 0.34256 74.6508 0.351104 74.497 0.36819Z" fill="#4066AF"/>
<path d="M0.00854324 24.6182L0.0213581 25.9339L27.223 25.9467L54.4204 25.9552V24.631V23.3068H27.2102H0L0.00854324 24.6182Z" fill="#4066AF"/>
<path d="M113.497 24.631V25.9552L143.924 25.9467L174.346 25.9339L174.359 24.6182L174.368 23.3068H143.932H113.497V24.631Z" fill="#4066AF"/>
<path d="M165.09 27.2624C164.598 27.3777 164.15 27.6853 163.983 28.0184C163.851 28.2705 163.774 28.7019 163.774 29.1803C163.774 29.7356 163.723 30.4191 163.539 32.2559C163.154 36.1345 163.009 38.2233 162.949 40.735C162.932 41.2904 162.928 41.3331 162.736 41.8927C162.625 42.213 162.381 42.8666 162.189 43.345C161.608 44.8144 161.108 45.7884 160.737 46.1685C160.579 46.3351 160.515 46.3736 160.395 46.3736C160.228 46.3736 160.096 46.2753 159.993 46.0788C159.618 45.3527 159.746 42.6017 160.275 40.0131C160.386 39.4877 160.395 39.3639 160.357 39.1887C160.297 38.894 160.224 38.7786 159.964 38.5266C159.284 37.8859 158.204 37.7748 157.469 38.2703C157.221 38.4326 157.003 38.7701 156.944 39.0862C156.922 39.2058 156.884 39.8337 156.858 40.4787C156.815 41.8243 156.824 41.7816 156.358 42.6829C155.513 44.3317 154.214 45.9037 153.701 45.9037C153.496 45.9037 153.381 45.5919 153.304 44.8273C153.206 43.7978 153.334 42.0592 153.569 41.269C153.778 40.5642 153.778 40.5001 153.582 40.2652C153.014 39.5945 151.211 39.7782 150.352 40.5941C149.793 41.1323 149.011 42.495 148.516 43.8106L148.332 44.3018L148.319 44.0456C148.289 43.5116 148.486 42.1404 148.806 40.6795C149.101 39.3083 149.169 38.8769 149.118 38.642C149.058 38.3686 148.917 38.1977 148.614 38.0482C147.982 37.7278 147.162 37.7705 146.431 38.1507C145.918 38.4241 145.615 38.7573 145.466 39.2229C145.427 39.3382 145.355 39.5176 145.299 39.6244C145.248 39.7312 145.15 40.0003 145.09 40.2225C144.769 41.3672 143.983 43.2382 143.39 44.2933C142.851 45.2373 142.471 45.4466 142.206 44.9298C142.074 44.6692 142.023 44.3104 142.001 43.4475C141.967 42.2216 142.147 40.4574 142.441 39.0478C142.599 38.3045 142.604 38.2148 142.523 37.9371C142.467 37.7449 142.399 37.6339 142.219 37.4459C141.813 37.0187 141.28 36.8052 140.613 36.8052C140.186 36.8052 139.891 36.882 139.643 37.0657C139.541 37.1383 139.447 37.1811 139.43 37.1597C139.413 37.1426 139.293 36.9931 139.165 36.8308C138.721 36.2712 138.178 35.9038 137.585 35.7586C137.435 35.7244 137.081 35.6817 136.799 35.6689C135.556 35.6048 134.586 36.0064 133.616 36.976C132.501 38.0866 131.771 39.8423 131.562 41.9055C131.497 42.5462 131.532 43.9388 131.63 44.4941C131.826 45.656 132.16 46.553 132.694 47.3774C133.219 48.1805 133.851 48.6674 134.727 48.9451C135.098 49.0604 135.765 49.0775 136.201 48.9835C136.88 48.8383 137.572 48.4539 138.059 47.9584C138.494 47.5184 138.994 46.7324 139.276 46.0447L139.366 45.8183L139.545 46.0917C139.908 46.647 140.476 47.04 141.211 47.2535C141.737 47.403 142.292 47.3902 142.706 47.2151C143.552 46.8648 144.445 45.9507 145.051 44.8144L145.256 44.43L145.286 44.8785C145.303 45.1263 145.325 45.9251 145.333 46.6512C145.35 48.1335 145.35 48.1249 145.662 48.3941C146.017 48.6973 146.717 48.8597 147.298 48.7742C148.165 48.6418 148.682 48.2403 148.759 47.638C148.845 46.9417 149.178 45.6431 149.485 44.8144C149.818 43.9003 150.25 43.1827 150.399 43.2724C150.429 43.2937 150.446 43.5928 150.446 44.1652C150.446 45.6688 150.656 46.4676 151.237 47.1724C151.561 47.5696 151.886 47.7747 152.377 47.89C153.091 48.0566 153.718 48.0053 154.244 47.7448C154.795 47.4628 155.696 46.6 156.371 45.6987L156.743 45.2074L156.815 45.6303C157.033 46.9246 157.584 47.7661 158.498 48.2104C159.571 48.7272 160.382 48.6375 161.326 47.89C161.933 47.4116 162.484 46.6897 162.984 45.7243L163.248 45.2117L163.347 45.6346C163.479 46.2155 163.744 46.9673 163.97 47.3988C164.41 48.2574 165.008 48.6461 165.888 48.6504C167.029 48.6546 167.815 48.1805 168.767 46.9118C169.464 45.9849 170.087 44.7675 170.685 43.1656C170.878 42.6615 171.728 40.0174 171.873 39.4877C171.945 39.2186 171.89 39.0264 171.693 38.8641C171.441 38.6548 171.078 38.5907 170.724 38.6889C170.391 38.7786 170.348 38.8513 169.78 40.3506C168.917 42.6274 168.481 43.6611 167.934 44.7632C167.469 45.6901 167.178 46.0746 166.935 46.0746C166.773 46.0746 166.567 45.8225 166.469 45.5022C166.268 44.8529 166.23 44.3189 166.23 42.2088C166.23 41.128 166.256 39.8594 166.286 39.3895C166.521 35.6305 166.802 32.7514 167.174 30.2397C167.477 28.2021 167.473 28.1081 167.067 27.7408C166.563 27.288 165.769 27.0958 165.09 27.2624ZM137.862 37.9756C137.965 38.0354 138.11 38.1721 138.183 38.2874C138.332 38.5095 138.524 39.0777 138.635 39.6031C139.033 41.5253 138.422 44.6222 137.32 46.2796C136.871 46.9545 136.534 47.2023 136.072 47.2023C135.342 47.2023 134.893 46.4932 134.701 45.0323C134.616 44.3873 134.641 42.8281 134.748 42.1447C134.893 41.222 135.12 40.3634 135.397 39.6885C135.65 39.0819 136.162 38.3558 136.517 38.1123C136.952 37.809 137.486 37.7535 137.862 37.9756Z" fill="#4066AF"/>
<path d="M108.461 29.035C108.192 29.0863 107.769 29.2956 107.572 29.475C107.235 29.7783 107.089 30.3122 107.089 31.252C107.089 31.7261 107.008 32.7 106.833 34.3062C106.765 34.9384 106.658 36.0362 106.598 36.741C106.538 37.4458 106.479 38.1036 106.466 38.2019L106.444 38.3813L106.158 38.1464C105.646 37.7235 105.223 37.5697 104.364 37.4885C103.087 37.3732 102.028 37.685 101.045 38.4753C100.443 38.958 99.9858 39.556 99.5928 40.3719C98.448 42.7469 98.6317 45.7627 100.041 47.6507C100.627 48.4324 101.25 48.8382 102.305 49.1073C103.318 49.3679 104.672 48.9664 105.547 48.1462C105.872 47.8472 106.248 47.3602 106.457 46.9843L106.632 46.6597L106.79 47.1339C107.06 47.9326 107.397 48.5563 107.756 48.9151C108.2 49.3594 108.854 49.5473 109.631 49.4491C110.272 49.3722 110.656 49.2355 111.169 48.9023C111.716 48.552 112.45 47.7575 112.976 46.9587L113.253 46.5358L113.411 46.916C113.826 47.9027 114.471 48.6759 115.18 49.0262C115.774 49.3166 116.09 49.3765 116.978 49.3765C118.072 49.3765 118.717 49.2312 119.622 48.7784C120.455 48.3598 120.977 47.9882 121.673 47.3133C122.245 46.7579 122.689 46.2112 123.112 45.5405C123.937 44.2334 124.458 43.1185 124.949 41.6106C125.205 40.8119 125.218 40.6324 125.022 40.4103C124.761 40.1113 124.364 40.0515 123.971 40.248C123.727 40.3676 123.646 40.4787 123.471 40.9272C123.168 41.6918 122.493 42.9049 121.72 44.0668C120.575 45.784 119.597 46.7708 118.537 47.2876C118.183 47.4585 118.166 47.4628 117.726 47.4628C117.367 47.4628 117.243 47.4457 117.111 47.3816C116.607 47.1296 116.273 46.4119 116.141 45.3013C116.064 44.6179 116.162 42.5846 116.282 42.465C116.295 42.4479 116.641 42.4009 117.051 42.3539C119.02 42.1318 120.374 41.5722 120.994 40.7307C121.284 40.3334 121.335 40.1369 121.331 39.4108C121.327 38.6333 121.216 38.1763 120.848 37.4245C120.566 36.8521 120.31 36.489 119.879 36.0618C119.144 35.3356 118.418 35.011 117.538 35.011C116.654 35.011 115.923 35.3826 115.244 36.1771C114.056 37.5697 113.194 39.7824 112.92 42.1361C112.869 42.5846 112.813 42.8152 112.655 43.2638C112.284 44.3402 111.699 45.626 111.229 46.4034C110.618 47.4158 110.016 47.4884 109.764 46.5871C109.61 46.036 109.558 45.3996 109.537 43.7123C109.507 41.585 109.601 39.7311 109.87 37.0187C110.054 35.1434 110.485 31.7048 110.661 30.6753C110.759 30.1072 110.682 29.8423 110.315 29.5049C109.866 29.0948 109.123 28.9026 108.461 29.035ZM118.268 37.0699C118.533 37.3604 118.64 37.8089 118.64 38.6419C118.644 39.4748 118.601 39.6457 118.307 39.949C118.068 40.1925 117.88 40.2694 117.32 40.3505C116.893 40.4103 116.658 40.4061 116.658 40.3377C116.658 40.2266 117.085 38.7828 117.247 38.3429C117.516 37.6124 117.781 37.1468 117.978 37.04C118.132 36.9589 118.166 36.9631 118.268 37.0699ZM105.172 39.4962C105.714 39.7739 106.077 40.8546 106.077 42.1873C106.073 44.0583 105.377 46.1044 104.403 47.0997C104.104 47.403 103.86 47.5311 103.523 47.561C102.861 47.6123 102.374 47.104 102.104 46.0788C101.955 45.5149 101.921 44.3103 102.023 43.4816C102.297 41.3373 103.262 39.6329 104.326 39.4108C104.573 39.3595 104.979 39.4022 105.172 39.4962Z" fill="#4066AF"/>
<path d="M148.238 31.1409C147.832 31.2734 147.563 31.4485 147.234 31.7988C146.79 32.2772 146.145 33.3579 145.987 33.8961C145.79 34.571 146.055 35.2673 146.508 35.2673C146.717 35.263 146.974 35.1434 147.144 34.964C147.221 34.8829 147.375 34.6437 147.49 34.4344C147.926 33.6227 148.191 33.6569 149.656 34.6864C150.741 35.4553 151.194 35.6518 151.856 35.6518C152.258 35.6518 152.484 35.5962 152.945 35.3741C153.223 35.2417 153.424 35.105 153.637 34.9042C154.214 34.3745 154.88 33.3878 154.974 32.9307C155.081 32.4181 154.838 32.0209 154.415 32.0209C154.043 32.0209 153.774 32.2131 153.471 32.6915C153.167 33.17 152.928 33.3109 152.574 33.2169C152.176 33.1059 151.873 32.9008 150.831 32.0252C149.725 31.0982 149.062 30.8761 148.238 31.1409Z" fill="#4066AF"/>
<path d="M42.054 31.4869C40.9007 31.6877 39.9567 32.1704 39.5338 32.7684C39.1152 33.3579 39.1878 34.2208 39.6961 34.6992C39.9652 34.9555 40.2685 35.1007 40.8025 35.2417C41.9259 35.5321 43.0322 35.4723 44.1044 35.058C44.8092 34.7846 45.4073 34.319 45.6465 33.8491C45.8601 33.4305 45.8216 32.8282 45.561 32.4096C45.3218 32.038 44.8178 31.7261 44.1471 31.5467C43.7072 31.4271 42.5752 31.3972 42.054 31.4869Z" fill="#4066AF"/>
<path d="M158.99 32.307C158.631 32.3412 158.003 32.4651 157.687 32.5633C157.05 32.7641 156.328 33.1955 156.076 33.5245C155.688 34.0328 155.615 34.6607 155.876 35.2118C156.213 35.9208 157.413 36.3395 158.926 36.2797C159.686 36.2498 160.271 36.1002 160.912 35.7799C161.928 35.2716 162.377 34.5881 162.215 33.8064C162.108 33.281 161.847 32.9649 161.296 32.683C160.681 32.3711 159.793 32.2259 158.99 32.307Z" fill="#4066AF"/>
<path d="M48.7178 33.2426C48.124 33.375 47.4705 33.7296 47.086 34.1226C46.8724 34.3404 46.7016 34.6693 46.6503 34.9555C46.629 35.0666 46.5991 36.1302 46.582 37.3177C46.5435 40.1455 46.5393 40.2096 46.2701 41.0127C45.9711 41.9054 45.4115 43.2937 45.0655 44.0028C44.6213 44.9212 44.2668 45.4124 43.9976 45.4979C43.8054 45.5577 43.532 45.2971 43.4423 44.9682C43.186 43.9943 43.3654 41.1622 43.8097 39.1759C43.9208 38.6718 43.9378 38.407 43.8695 38.1763C43.6773 37.4971 42.6008 36.9546 41.7422 37.1041C41.3407 37.1725 40.905 37.4117 40.7256 37.6552C40.4821 37.9926 40.4479 38.1763 40.4095 39.24C40.3796 40.0815 40.3625 40.2481 40.2642 40.5855C39.8755 41.9439 38.8333 44.2634 38.0729 45.4552C37.6671 46.0916 37.3809 46.2454 37.1246 45.9763C36.9367 45.7713 36.8939 45.5748 36.8726 44.8486C36.8427 43.7721 36.9836 42.7512 37.445 40.624C37.7098 39.4194 37.7141 39.2998 37.5261 39.0734C37.2784 38.7829 36.7572 38.7188 35.6466 38.8342C34.9888 38.9025 34.4677 38.9068 34.4036 38.847C34.3908 38.8299 34.4335 38.6804 34.4933 38.5052C34.6172 38.1721 34.6812 37.5911 34.6257 37.3006C34.5531 36.9247 34.1857 36.7197 33.5749 36.7197C33.011 36.7197 32.601 36.9162 32.1738 37.3775C31.8577 37.7235 31.7296 38.0268 31.7039 38.4625C31.6826 38.8897 31.7424 39.1417 31.9389 39.3937C32.0756 39.5774 32.0798 39.586 32.0157 39.7397C31.9816 39.8294 31.926 40.0259 31.8876 40.1797C31.7167 40.8546 31.0461 42.5505 30.542 43.5756C30.0508 44.5752 29.6578 45.1391 29.4058 45.2031C29.2477 45.2459 29.0683 45.1134 28.9701 44.8913C28.8248 44.5496 28.7736 44.0712 28.7779 43.1058C28.7821 41.8542 28.9573 40.295 29.2435 38.9409C29.3802 38.2959 29.3759 38.0396 29.2349 37.7534C29.1025 37.4886 28.7821 37.1896 28.4703 37.0443C27.7527 36.7026 26.83 36.724 26.39 37.0956L26.2576 37.2067L26.1252 37.0401C25.8646 36.7069 25.4332 36.284 25.1897 36.1217C24.6771 35.7757 23.9936 35.6262 23.1521 35.6689C22.1056 35.7201 21.3324 36.0747 20.4866 36.8906C19.9527 37.4032 19.611 37.8773 19.265 38.5779C18.9275 39.2656 18.8036 39.5988 18.6071 40.3506C18.4405 40.9785 18.2483 41.4441 17.7058 42.5505C16.9327 44.1139 16.215 45.1519 15.7708 45.3356C15.6255 45.3954 15.6127 45.3954 15.5401 45.3057C15.4846 45.2373 15.4632 45.1348 15.4632 44.9255C15.4632 44.2207 15.822 41.773 16.2321 39.6714C16.4884 38.3557 16.702 37.0529 16.702 36.7966C16.702 36.5446 16.5952 36.2755 16.4414 36.1345C16.3859 36.0832 16.2236 35.9893 16.0826 35.9209C15.8434 35.8098 15.7879 35.8013 15.2924 35.8013C14.8524 35.8013 14.7029 35.8184 14.438 35.8995C13.9468 36.0533 13.4684 36.3224 13.195 36.5958C12.6525 37.1383 10.8157 39.7312 10.1621 40.876C9.99983 41.1622 9.86741 41.3715 9.86741 41.3459C9.86741 41.1494 10.1365 39.257 10.192 39.0691C10.3245 38.6035 10.333 38.5351 10.2946 38.3856C10.2476 38.2062 10.0895 38.0482 9.82469 37.9115C9.58975 37.7919 8.94046 37.7492 8.53039 37.826C7.92382 37.9414 7.33861 38.1891 7.03959 38.4625C6.78757 38.6889 6.37749 39.2357 6.06566 39.7525C5.64705 40.4403 4.95931 41.9012 4.69875 42.6573C4.64321 42.811 4.58768 42.9477 4.57487 42.9648C4.53642 43.0118 4.6005 42.0379 4.69875 41.1408C4.87388 39.5432 5.09173 38.1122 5.38221 36.6983C5.47618 36.2413 5.55307 35.8184 5.55307 35.7586C5.55307 35.5877 5.48472 35.4895 5.28396 35.387C5.12591 35.3015 5.04475 35.2887 4.59196 35.2887C4.11781 35.293 4.04946 35.3015 3.63938 35.4468C2.75943 35.7543 2.05889 36.2968 1.77269 36.8948C1.46513 37.5441 1.38824 38.3429 1.42241 40.5001C1.43523 41.3459 1.49076 42.6914 1.53775 43.4902C1.58901 44.289 1.636 45.4338 1.64454 46.0318C1.65308 46.7324 1.67444 47.1681 1.70861 47.2492C1.97345 47.937 3.38736 48.1847 4.33139 47.7106C4.57487 47.591 4.80554 47.3902 4.89524 47.2193C4.92514 47.1595 5.03193 46.7665 5.13018 46.3479C5.53171 44.6222 6.30487 42.3668 6.73631 41.6833C7.00115 41.2604 7.00542 41.2775 7.00542 42.9862C7.00542 45.3313 7.11221 46.1343 7.45821 46.3565C7.70169 46.5188 8.46204 46.3778 9.00881 46.066C9.13269 45.9934 9.35481 45.8225 9.50432 45.6816C9.7478 45.4552 9.81615 45.3526 10.2262 44.5453C11.0122 43.0033 11.7341 41.7218 12.3321 40.8162C12.6055 40.3976 12.9601 39.9704 12.9985 40.0088C13.0113 40.0217 12.9729 40.1925 12.9173 40.3933C12.6867 41.1921 12.5201 42.3796 12.4859 43.4902C12.4603 44.4471 12.503 44.9938 12.6696 45.6431C12.9942 46.9417 13.7973 47.5483 14.9848 47.403C15.6298 47.3219 16.0484 47.1382 16.5781 46.7025C16.9198 46.4205 17.5734 45.6687 18.039 45.0195C18.2312 44.7546 18.3936 44.5496 18.4021 44.5538C18.4106 44.5624 18.4534 44.7461 18.5003 44.9639C18.8805 46.7964 19.8374 48.2274 21.0334 48.7657C21.5118 48.9835 21.7724 49.039 22.2765 49.039C23.8228 49.039 25.053 48.142 25.8817 46.412C26.0013 46.1685 26.0996 45.9421 26.0996 45.9122C26.0996 45.8097 26.1722 45.8652 26.3046 46.0703C26.5395 46.4291 27.0051 46.8306 27.4323 47.0357C28.5814 47.5952 29.551 47.4286 30.5463 46.506C31.1657 45.9336 31.58 45.3398 32.1012 44.2677C32.5582 43.3407 32.8231 42.6829 33.2545 41.3971L33.639 40.2438L34.0789 40.231C34.3182 40.2267 34.5146 40.231 34.5146 40.2438C34.5146 40.2566 34.4463 40.483 34.3694 40.7521C34.0277 41.8798 33.8525 43.0246 33.8568 44.1737C33.8568 45.4039 34.0021 46.1173 34.4164 46.9673C34.8265 47.8046 35.3647 48.1249 36.3557 48.1249C37.0691 48.1249 37.5988 47.9541 38.2523 47.5141C38.8546 47.104 39.679 46.1728 40.1703 45.3484L40.3753 44.9981L40.512 45.421C40.8836 46.5615 41.4688 47.1724 42.5239 47.5312C42.9468 47.6764 43.6516 47.6764 44.0062 47.5354C44.7708 47.2279 45.5867 46.4419 46.2146 45.4124L46.3983 45.1134L46.3684 45.7115C46.2915 47.4586 46.2061 48.8639 46.1249 49.8763C46.0736 50.4999 46.0309 51.1663 46.0267 51.3585C46.0267 51.6704 46.0395 51.7174 46.1334 51.8241C46.3598 52.0676 46.8767 52.2257 47.4577 52.2257C48.3248 52.2257 49.0894 51.8925 49.209 51.4568C49.2304 51.3756 49.2517 50.8246 49.2517 50.2394C49.2517 49.1672 49.3115 47.1595 49.3628 46.3437L49.3884 45.908L49.6319 46.0745C50.2598 46.4974 50.9006 46.7281 51.584 46.7794C52.6135 46.852 53.4721 46.5273 54.2709 45.7713C55.4798 44.6222 56.2187 42.811 56.2871 40.8418C56.3469 39.1374 55.8599 37.7577 54.8518 36.7624C54.2495 36.1644 53.6301 35.9166 52.6477 35.8782C52.1692 35.8568 52.0368 35.8696 51.7293 35.9465C51.1782 36.0832 50.3923 36.4805 50.0548 36.7966C49.9907 36.8564 49.9309 36.8991 49.9181 36.8863C49.8967 36.8607 50.089 34.9171 50.1659 34.3447C50.2513 33.7552 50.2513 33.6698 50.1659 33.5117C50.0206 33.2298 49.3457 33.1016 48.7178 33.2426ZM52.3102 37.7278C52.7801 37.9542 53.0748 38.7573 53.1261 39.9661C53.156 40.6923 53.1005 41.2647 52.9253 42.1447C52.6007 43.7636 51.9856 44.8657 51.3619 44.9511C50.6742 45.0408 50.0206 44.2933 49.7857 43.1485C49.4909 41.7132 49.8711 39.5518 50.593 38.5394C50.8365 38.202 51.2124 37.8474 51.4388 37.7449C51.6695 37.6381 52.1052 37.6338 52.3102 37.7278ZM24.6686 37.9926C24.9078 38.1592 25.053 38.3899 25.2025 38.8256C25.5955 39.9875 25.6425 41.3373 25.3478 42.8922C25.0018 44.6905 24.3567 46.1771 23.622 46.8563C23.1906 47.2578 22.7506 47.3261 22.332 47.0613C21.2 46.3437 21.0889 42.4736 22.127 39.8252C22.5285 38.8 23.1906 38.0311 23.81 37.8688C23.8826 37.8474 24.0663 37.8431 24.22 37.8517C24.4336 37.8688 24.5361 37.8987 24.6686 37.9926Z" fill="#4066AF"/>
<path d="M82.2073 35.1007C81.2846 35.2246 80.5286 35.639 79.7255 36.4676C79.2471 36.9674 78.9652 37.3818 78.6149 38.1037C78.2988 38.7572 78.0852 39.3937 77.94 40.0857C77.752 40.9998 77.7221 41.3074 77.7264 42.3796C77.7264 43.2296 77.7435 43.4945 77.8204 43.9387C77.9955 44.9511 78.2817 45.7798 78.7089 46.5188C79.2471 47.4457 79.8707 47.9925 80.7678 48.3128C81.1138 48.4367 81.1779 48.4453 81.6947 48.441C82.1219 48.4367 82.3269 48.4154 82.5918 48.3427C83.2453 48.1676 83.8519 47.7917 84.3346 47.2706C84.7361 46.8391 85.1974 46.1001 85.4367 45.5064C85.4879 45.374 85.5435 45.2629 85.5563 45.2629C85.5691 45.2629 85.6417 45.3612 85.71 45.4808C86.0859 46.1215 86.9915 46.6512 87.9142 46.7793C88.3969 46.8434 89.0974 46.6042 89.6485 46.1856C90.8104 45.3056 91.7928 43.503 92.7838 40.4317C93.1683 39.2399 93.1768 39.1502 92.9675 38.9025C92.7155 38.5992 92.2542 38.518 91.8526 38.7017C91.5707 38.8341 91.4383 39.0306 91.3059 39.5219C90.9855 40.7136 90.0628 42.9007 89.452 43.9088C88.6147 45.2971 88.1064 44.6094 88.179 42.1873C88.2175 40.9742 88.414 39.398 88.666 38.2575C88.8369 37.4928 88.7685 37.1938 88.3328 36.7795C88.2047 36.6599 87.9911 36.5146 87.8587 36.4506C87.2051 36.143 86.3593 36.1259 85.9236 36.4207C85.8553 36.4676 85.7613 36.5274 85.7186 36.5573C85.6502 36.6043 85.6289 36.5958 85.552 36.4847C85.5007 36.4121 85.2743 36.1686 85.0479 35.9422C84.5781 35.4724 84.2363 35.2716 83.7024 35.1605C83.3094 35.0794 82.5789 35.0495 82.2073 35.1007ZM83.728 37.275C84.1808 37.3604 84.4243 37.6552 84.655 38.3856C84.9027 39.1759 84.9967 40.1028 84.9198 41.034C84.6891 43.9003 83.4119 46.6256 82.2927 46.6298C81.5281 46.6298 81.0796 45.9207 80.8788 44.3872C80.7849 43.6995 80.819 42.324 80.9472 41.4868C81.1949 39.8636 81.699 38.565 82.3611 37.8517C82.7285 37.4629 82.9762 37.3262 83.4717 37.2365C83.4888 37.2323 83.5999 37.2536 83.728 37.275Z" fill="#4066AF"/>
<path d="M74.5825 35.8397C74.5013 35.8696 74.2493 35.9892 74.0272 36.1003C73.1088 36.5616 71.917 36.946 70.6526 37.1852C70.0588 37.2963 69.5377 37.3518 68.709 37.3988C68.1494 37.4287 67.9914 37.4501 67.829 37.527C67.2908 37.7833 66.9875 38.4197 67.0986 39.0733C67.2011 39.6713 67.4531 40.0344 67.8418 40.1412C69.4693 40.5855 70.1229 40.8674 71.2036 41.5936C71.7803 41.978 72.1861 42.3582 72.5791 42.8836C73.4505 44.0455 73.6384 45.2287 73.0447 45.8225C72.6901 46.177 72.2117 46.2496 71.8956 45.9976C71.6735 45.8225 71.3958 45.391 71.3403 45.1347C71.2805 44.8485 71.2805 44.3146 71.3446 43.802C71.4257 43.1527 71.2933 42.8921 70.7893 42.6956C70.4732 42.5718 69.8581 42.5632 69.4779 42.6743C68.8414 42.8622 68.2476 43.2894 68.0341 43.7123C67.7479 44.2719 67.8077 45.2629 68.1665 45.972C68.82 47.262 70.1784 47.9241 72.0408 47.8515C72.9293 47.8216 73.5487 47.6593 74.3902 47.2406C75.9665 46.4547 76.6243 45.391 76.462 43.8874C76.3765 43.1057 76.1202 42.5419 75.5991 41.9951C74.984 41.3458 74.3945 40.9186 73.5359 40.5C72.814 40.1497 72.3057 39.9618 71.5283 39.7696L70.8961 39.6115L71.5112 39.4919C71.8486 39.4278 72.5492 39.2954 73.066 39.1972C74.6551 38.9024 75.9237 38.6162 76.2014 38.4924C76.667 38.2831 76.8293 38.0011 76.7952 37.4415C76.7823 37.2023 76.7482 37.0614 76.6542 36.8691C76.4833 36.5274 76.0861 36.1387 75.7144 35.9507C75.4581 35.8226 75.3727 35.8012 75.078 35.7927C74.8687 35.7842 74.6722 35.8055 74.5825 35.8397Z" fill="#4066AF"/>
<path d="M61.0842 36.0106C60.106 36.2284 59.2431 36.8478 58.4785 37.8773C57.5943 39.0733 57.086 40.9315 57.2312 42.4522C57.338 43.5927 57.7096 44.494 58.3589 45.1988C59.1064 46.0062 59.9779 46.4077 61.1867 46.4974C62.5579 46.5999 63.6942 46.2881 64.6083 45.5619C64.997 45.2501 65.5438 44.6606 65.7873 44.2932C66.4237 43.315 66.7227 42.2728 66.7227 41.0169C66.7227 40.0003 66.5391 39.2057 66.1204 38.3856C65.4541 37.0827 64.3007 36.2541 62.8228 36.0148C62.3571 35.938 61.4174 35.938 61.0842 36.0106ZM62.3999 37.6039C62.921 37.8516 63.4165 38.8512 63.6344 40.0942C63.7369 40.6752 63.7369 42.2258 63.6344 42.7768C63.4251 43.9045 63.0321 44.5324 62.4896 44.6051C62.2375 44.6392 61.8873 44.541 61.6438 44.3659C61.2593 44.0839 60.8877 43.3321 60.6912 42.4351C60.6101 42.0506 60.5972 41.867 60.5972 40.9699C60.593 40.1498 60.6101 39.8678 60.6699 39.5603C60.8749 38.5308 61.2209 37.8346 61.631 37.6167C61.8317 37.5142 62.1948 37.5056 62.3999 37.6039Z" fill="#4066AF"/>
<path d="M0.0299013 53.3662C0.0128149 53.379 0 53.977 0 54.6904V55.9847H87.1837H174.367L174.359 54.669L174.346 53.3576L87.2008 53.3448C39.2733 53.3405 0.0427162 53.3491 0.0299013 53.3662Z" fill="#4066AF"/>
</svg>
