<svg width="556" height="525" viewBox="0 0 556 525" fill="none" xmlns="http://www.w3.org/2000/svg">
<path d="M277.874 525C431.34 525 555.748 453.175 555.748 364.574C555.748 275.973 431.34 204.147 277.874 204.147C124.409 204.147 0 275.973 0 364.574C0 453.175 124.409 525 277.874 525Z" fill="#F5F5F5"/>
<path d="M122.178 24.8023L112.187 30.5576C112.245 30.1216 112.273 29.6823 112.272 29.2425V26.3467C112.272 21.1946 108.652 19.1072 104.212 21.6893C102.286 22.8597 100.638 24.4369 99.3855 26.3105C98.6616 19.8432 93.5819 17.4301 87.4163 20.9895C80.744 24.8385 75.3506 34.2618 75.3506 41.8994V46.231C75.3091 47.9562 75.6598 49.6683 76.3762 51.2383L68.087 56.0646C66.7842 56.9127 65.6998 58.0562 64.922 59.4021C64.1441 60.7481 63.6949 62.2586 63.6106 63.8108C63.6106 66.6704 65.6135 67.8287 68.087 66.405L122.178 35.1305C123.481 34.2825 124.565 33.139 125.343 31.793C126.121 30.4471 126.57 28.9366 126.654 27.3843C126.654 24.5248 124.651 23.3664 122.178 24.8023Z" fill="#EBEBEB"/>
<path d="M164.89 53.881L157.361 58.2247C157.4 57.8962 157.42 57.5659 157.422 57.2353V55.0514C157.422 51.1662 154.695 49.5977 151.329 51.5402C149.883 52.4258 148.648 53.6157 147.709 55.0272C147.154 50.2009 143.317 48.3187 138.672 51.0094C136.018 52.738 133.809 55.0678 132.224 57.8099C130.639 60.5519 129.723 63.629 129.55 66.7914V70.0612C129.524 71.3617 129.787 72.6518 130.322 73.8377L124.072 77.4575C123.089 78.0994 122.271 78.9636 121.684 79.9802C121.098 80.9968 120.758 82.1373 120.694 83.3094C120.694 85.4691 122.202 86.3379 124.072 85.264L164.89 61.6996C165.873 61.0577 166.691 60.1934 167.278 59.1768C167.865 58.1602 168.204 57.0198 168.269 55.8477C168.269 53.6759 166.761 52.8071 164.89 53.881Z" fill="#EBEBEB"/>
<path d="M101.244 419.884L113.708 412.644C113.708 412.644 116.76 385.967 114.721 365.31C111.874 336.28 93.1235 301.362 70.7536 309.554C48.3837 317.747 80.9974 347.393 88.2369 371.995C95.4763 396.597 101.244 419.884 101.244 419.884Z" fill="#4066AF"/>
<path opacity="0.2" d="M101.244 419.884L113.708 412.644C113.708 412.644 116.76 385.967 114.721 365.31C111.874 336.28 93.1235 301.362 70.7536 309.554C48.3837 317.747 80.9974 347.393 88.2369 371.995C95.4763 396.597 101.244 419.884 101.244 419.884Z" fill="black"/>
<path d="M107.795 416.855C107.697 416.852 107.6 416.83 107.511 416.789C107.421 416.749 107.341 416.691 107.273 416.619C107.206 416.547 107.154 416.463 107.119 416.371C107.084 416.279 107.068 416.181 107.071 416.083C109.255 351.567 77.1483 319.123 76.8226 318.809C76.7381 318.743 76.6687 318.66 76.6187 318.565C76.5687 318.47 76.5393 318.366 76.5325 318.259C76.5257 318.152 76.5417 318.044 76.5792 317.944C76.6168 317.843 76.6752 317.752 76.7506 317.676C76.826 317.6 76.9167 317.54 77.0166 317.501C77.1166 317.463 77.2237 317.446 77.3307 317.451C77.4378 317.457 77.5425 317.485 77.6379 317.534C77.7333 317.583 77.8173 317.651 77.8844 317.735C78.2101 318.049 110.788 350.976 108.58 416.131C108.577 416.231 108.554 416.328 108.512 416.419C108.471 416.509 108.412 416.59 108.339 416.658C108.266 416.725 108.181 416.777 108.087 416.811C107.994 416.845 107.895 416.86 107.795 416.855Z" fill="white"/>
<path d="M94.5955 425.036L103.464 419.92C103.464 419.92 104.972 401.616 95.9951 379.367C88.1765 360.062 68.7989 343.954 59.0498 347.32C49.3007 350.686 49.5299 357.612 54.2235 364.864C58.9171 372.115 87.9714 389.405 94.5955 425.036Z" fill="#4066AF"/>
<path d="M99.2771 423.093C99.0755 423.093 98.8821 423.013 98.7396 422.87C98.597 422.728 98.517 422.534 98.517 422.333C98.6979 381.551 60.4013 353.98 60.0152 353.703C59.8788 353.579 59.7928 353.41 59.7734 353.227C59.7541 353.044 59.8028 352.861 59.9103 352.711C60.0177 352.562 60.1764 352.458 60.356 352.418C60.5356 352.378 60.7236 352.406 60.8839 352.496C61.27 352.774 100.206 380.803 100.025 422.369C100.019 422.563 99.9373 422.747 99.7977 422.883C99.6581 423.018 99.4714 423.093 99.2771 423.093Z" fill="white"/>
<path d="M333.896 368.338L256.675 412.982L256.494 412.885L227.114 395.909C224.557 394.267 222.527 391.924 221.265 389.16C220.002 386.396 219.562 383.327 219.995 380.32L230.854 323.707L308.075 279.064L297.216 335.676C296.782 338.684 297.223 341.753 298.485 344.517C299.747 347.281 301.778 349.623 304.335 351.265L333.896 368.338Z" fill="#37474F"/>
<path d="M230.89 323.707L220.079 379.825L297.324 335.242L307.315 283.335L302.44 282.358L230.89 323.707Z" fill="#263238"/>
<path d="M256.651 412.97L227.101 395.909C224.547 394.264 222.518 391.921 221.256 389.158C219.994 386.395 219.552 383.327 219.983 380.32L230.842 323.707L217.968 316.263L205.516 381.032C203.863 389.598 208.701 400.18 216.254 404.536L256.614 427.835L256.651 412.97Z" fill="#263238"/>
<path d="M333.896 368.338L256.651 412.97V427.847L333.896 383.215V368.338Z" fill="#455A64"/>
<path d="M409.463 1.47924C413.011 3.53042 415.894 8.71869 415.894 13.1227V250.166C415.765 252.548 415.076 254.865 413.883 256.93C412.69 258.995 411.027 260.749 409.029 262.051L113.575 432.649C109.786 434.833 103.826 434.941 100.303 432.89C96.7795 430.839 93.8596 425.651 93.8596 421.247V184.203C93.99 181.82 94.6795 179.502 95.8721 177.435C97.0648 175.368 98.7273 173.611 100.725 172.306L396.155 1.72055C399.944 -0.475413 405.904 -0.584001 409.463 1.47924Z" fill="#455A64"/>
<path d="M112.755 433.059C108.966 434.833 103.572 434.796 100.254 432.89C96.695 430.839 93.8113 425.651 93.8113 421.247V184.203C93.897 181.812 94.5905 179.483 95.8263 177.434L108.749 184.879C107.512 186.922 106.818 189.248 106.734 191.635V428.679C106.697 432.745 109.34 434.567 112.755 433.059Z" fill="#263238"/>
<path d="M415.894 250.166V13.1707C415.894 8.79083 412.83 7.01716 409.029 9.20106L113.575 179.75C111.577 181.052 109.914 182.807 108.721 184.872C107.528 186.937 106.839 189.254 106.709 191.635V428.679C106.709 433.059 109.786 434.832 113.575 432.648L409.029 262.051C411.027 260.749 412.69 258.995 413.883 256.93C415.076 254.865 415.765 252.547 415.894 250.166Z" fill="#37474F"/>
<path d="M400.812 21.2551L118.631 184.263C117.033 185.305 115.703 186.709 114.749 188.361C113.795 190.013 113.244 191.866 113.141 193.771V404.234C113.141 407.733 115.554 409.157 118.631 407.407L400.824 244.399C402.422 243.357 403.752 241.953 404.706 240.301C405.659 238.649 406.211 236.796 406.314 234.891V24.4284C406.314 20.9293 403.853 19.5056 400.812 21.2551Z" fill="#4066AF"/>
<path opacity="0.8" d="M400.812 21.2551L118.631 184.263C117.033 185.305 115.703 186.709 114.749 188.361C113.795 190.013 113.244 191.866 113.141 193.771V404.234C113.141 407.733 115.554 409.157 118.631 407.407L400.824 244.399C402.422 243.357 403.752 241.953 404.706 240.301C405.659 238.649 406.211 236.796 406.314 234.891V24.4284C406.314 20.9293 403.853 19.5056 400.812 21.2551Z" fill="white"/>
<path d="M133.254 381.526C131.758 381.526 130.841 380.319 130.841 378.256V211.58L388.59 62.7852V228.762C388.489 230.53 387.975 232.251 387.088 233.785C386.202 235.318 384.968 236.623 383.486 237.594L135.366 380.862C134.732 381.263 134.004 381.492 133.254 381.526Z" fill="#F5F5F5"/>
<path d="M387.986 63.8473V228.786C387.884 230.453 387.394 232.074 386.557 233.519C385.719 234.964 384.556 236.194 383.16 237.111L135.064 380.344C134.52 380.687 133.897 380.886 133.254 380.923C131.637 380.923 131.469 379.065 131.469 378.257V211.93L387.986 63.8473ZM389.193 61.76L130.262 211.255V378.257C130.262 380.67 131.469 382.13 133.254 382.13C134.111 382.099 134.944 381.841 135.667 381.382L383.775 238.137C385.352 237.111 386.665 235.727 387.606 234.098C388.547 232.469 389.091 230.641 389.193 228.762V61.7358V61.76Z" fill="#E0E0E0"/>
<path d="M130.262 211.23V234.674L389.193 85.1796V61.7358L130.262 211.23Z" fill="#4066AF"/>
<path d="M292.727 126.589V131.632C292.727 132.658 293.463 133.08 294.356 132.574L373.99 86.603V77.8433L294.356 123.814C293.889 124.119 293.499 124.529 293.216 125.01C292.934 125.492 292.766 126.032 292.727 126.589Z" fill="#FAFAFA"/>
<path d="M382.497 72.9206C383.389 72.4018 384.113 72.8241 384.113 73.8617V78.9052C384.081 79.4673 383.918 80.0141 383.637 80.5021C383.357 80.9901 382.966 81.4059 382.497 81.7165L373.966 86.6394V77.8434L382.497 72.9206Z" fill="#455A64"/>
<path d="M381.857 79.8341L380.916 79.5445C381.01 79.1491 381.058 78.7443 381.061 78.3379C381.104 77.9538 381.046 77.565 380.894 77.2096C380.742 76.8543 380.5 76.5446 380.192 76.3109C379.983 76.1842 379.743 76.1172 379.498 76.1172C379.254 76.1172 379.014 76.1842 378.804 76.3109C378.198 76.774 377.711 77.374 377.381 78.062C377.052 78.7499 376.891 79.506 376.91 80.2685C376.867 80.6544 376.925 81.0448 377.077 81.402C377.229 81.7593 377.471 82.0712 377.779 82.3076C377.963 82.4118 378.171 82.4659 378.382 82.4644C378.659 82.4604 378.93 82.3812 379.166 82.2352C379.888 81.7381 380.427 81.0174 380.699 80.184L381.652 80.4736H381.76C381.836 80.472 381.91 80.4467 381.97 80.4012C382.031 80.3558 382.076 80.2925 382.098 80.2202C382.106 80.1382 382.087 80.056 382.043 79.9862C382 79.9164 381.934 79.8629 381.857 79.8341ZM378.804 81.6681C378.702 81.7286 378.585 81.7605 378.467 81.7605C378.348 81.7605 378.231 81.7286 378.129 81.6681C377.935 81.4893 377.787 81.2668 377.697 81.0192C377.606 80.7715 377.577 80.5058 377.61 80.2443C377.6 79.6058 377.734 78.9733 378.004 78.3944C378.274 77.8155 378.671 77.3053 379.166 76.9021C379.293 76.8216 379.439 76.7759 379.589 76.7694C379.672 76.7498 379.759 76.7498 379.842 76.7694C380.033 76.9499 380.18 77.1726 380.27 77.4198C380.36 77.667 380.391 77.9318 380.361 78.1931C380.388 78.8533 380.261 79.5107 379.991 80.1136C379.721 80.7166 379.315 81.2487 378.804 81.6681Z" fill="#FAFAFA"/>
<path d="M130.262 199.9C130.361 198.023 130.903 196.195 131.842 194.566C132.781 192.937 134.092 191.552 135.667 190.525L383.775 47.2808C386.768 45.5554 389.193 46.9551 389.193 50.4059V61.7356L130.262 211.23V199.9Z" fill="#37474F"/>
<path d="M358.727 67.5877C357.989 68.0694 357.376 68.7181 356.936 69.4811C356.495 70.2441 356.241 71.1 356.193 71.9796C356.193 73.6085 357.327 74.26 358.727 73.4516C359.47 72.9714 360.088 72.3218 360.53 71.5562C360.973 70.7906 361.227 69.9308 361.273 69.0476C361.273 67.467 360.139 66.7793 358.727 67.5877Z" fill="#4066AF"/>
<path d="M367.619 62.4715C366.878 62.9505 366.261 63.5982 365.819 64.3616C365.376 65.125 365.121 65.9824 365.073 66.8635C365.073 68.4803 366.208 69.1439 367.619 68.3355C368.358 67.8526 368.973 67.202 369.413 66.4368C369.854 65.6715 370.107 64.8132 370.153 63.9315C370.153 62.3147 369.019 61.6631 367.619 62.4715Z" fill="#4066AF"/>
<path d="M376.5 57.3557C375.762 57.8375 375.149 58.4861 374.709 59.2491C374.268 60.0121 374.014 60.8681 373.966 61.7477C373.966 63.3645 375.1 64.0281 376.5 63.2197C377.238 62.736 377.852 62.0853 378.293 61.3202C378.733 60.5551 378.987 59.6971 379.034 58.8157C379.022 57.1989 377.9 56.6077 376.5 57.3557Z" fill="#4066AF"/>
<path d="M243.776 216.744L275.678 198.332C277.693 197.125 279.298 198.103 279.298 200.443V237.268C279.232 238.533 278.869 239.765 278.241 240.865C277.612 241.965 276.735 242.903 275.678 243.602L243.776 262.015C241.761 263.221 240.157 262.232 240.157 259.903V223.115C240.215 221.843 240.573 220.602 241.202 219.495C241.831 218.388 242.713 217.445 243.776 216.744Z" fill="#4066AF"/>
<path d="M252.536 262.618L271.841 251.494C273.289 250.649 274.448 251.252 274.448 252.809C274.382 253.686 274.113 254.536 273.66 255.29C273.208 256.044 272.585 256.682 271.841 257.152L252.536 268.277C251.088 269.11 249.918 268.518 249.918 266.962C249.982 266.083 250.252 265.231 250.707 264.477C251.162 263.722 251.789 263.085 252.536 262.618Z" fill="#455A64"/>
<path d="M259.45 215.393C262.84 213.438 265.579 215.019 265.579 218.928C265.465 221.054 264.85 223.122 263.785 224.965C262.72 226.808 261.235 228.374 259.45 229.534C256.071 231.488 253.333 229.908 253.333 225.999C253.447 223.874 254.061 221.807 255.124 219.965C256.187 218.122 257.669 216.556 259.45 215.393Z" fill="#FAFAFA"/>
<path d="M271.528 236.279C271.528 229.872 267.015 227.012 261.465 230.246L257.99 232.261C252.428 235.47 247.927 243.265 247.927 249.684V251.409L271.528 237.799V236.279Z" fill="#FAFAFA"/>
<path d="M302.621 182.743L334.511 164.331C336.538 163.124 338.131 164.102 338.131 166.442V203.267C338.066 204.533 337.705 205.765 337.076 206.866C336.447 207.966 335.569 208.903 334.511 209.601L302.621 228.014C300.606 229.22 299.001 228.231 299.001 225.902V189.078C299.066 187.812 299.427 186.579 300.056 185.479C300.685 184.378 301.564 183.441 302.621 182.743Z" fill="#4066AF"/>
<path opacity="0.2" d="M302.621 182.743L334.511 164.331C336.538 163.124 338.131 164.102 338.131 166.442V203.267C338.066 204.533 337.705 205.765 337.076 206.866C336.447 207.966 335.569 208.903 334.511 209.601L302.621 228.014C300.606 229.22 299.001 228.231 299.001 225.902V189.078C299.066 187.812 299.427 186.579 300.056 185.479C300.685 184.378 301.564 183.441 302.621 182.743Z" fill="black"/>
<path d="M311.381 228.617L330.686 217.492C332.122 216.66 333.292 217.251 333.292 218.807C333.229 219.685 332.96 220.536 332.507 221.29C332.055 222.045 331.431 222.682 330.686 223.151L311.381 234.276C309.933 235.108 308.763 234.517 308.763 232.961C308.826 232.082 309.097 231.23 309.552 230.475C310.007 229.72 310.633 229.084 311.381 228.617Z" fill="#455A64"/>
<path d="M318.295 181.392C321.685 179.437 324.424 181.018 324.424 184.927C324.311 187.053 323.697 189.122 322.631 190.965C321.566 192.808 320.08 194.373 318.295 195.533C314.916 197.487 312.177 195.907 312.177 191.998C312.293 189.874 312.907 187.807 313.97 185.964C315.032 184.122 316.514 182.555 318.295 181.392Z" fill="#FAFAFA"/>
<path d="M330.372 202.278C330.372 195.871 325.86 193.011 320.309 196.245L316.835 198.26C311.272 201.469 306.772 209.264 306.772 215.683V217.408L330.372 203.81V202.278Z" fill="#FAFAFA"/>
<path d="M184.992 250.661L216.894 232.249C218.909 231.042 220.514 232.031 220.514 234.36V271.185C220.45 272.451 220.089 273.684 219.46 274.784C218.831 275.885 217.952 276.822 216.894 277.519L184.992 295.932C182.977 297.138 181.372 296.161 181.372 293.82V256.995C181.439 255.73 181.801 254.498 182.429 253.398C183.058 252.298 183.936 251.36 184.992 250.661Z" fill="#4066AF"/>
<path opacity="0.5" d="M184.992 250.661L216.894 232.249C218.909 231.042 220.514 232.031 220.514 234.36V271.185C220.45 272.451 220.089 273.684 219.46 274.784C218.831 275.885 217.952 276.822 216.894 277.519L184.992 295.932C182.977 297.138 181.372 296.161 181.372 293.82V256.995C181.439 255.73 181.801 254.498 182.429 253.398C183.058 252.298 183.936 251.36 184.992 250.661Z" fill="white"/>
<path d="M193.752 296.535L213.057 285.411C214.505 284.578 215.663 285.169 215.663 286.726C215.6 287.604 215.331 288.454 214.878 289.209C214.425 289.963 213.802 290.601 213.057 291.07L193.752 302.194C192.304 303.027 191.134 302.435 191.134 300.879C191.197 300 191.468 299.148 191.923 298.394C192.378 297.639 193.004 297.002 193.752 296.535Z" fill="#455A64"/>
<path d="M200.666 249.31C204.056 247.355 206.795 248.948 206.795 252.845C206.681 254.972 206.066 257.042 205.001 258.887C203.936 260.732 202.451 262.3 200.666 263.463C197.287 265.405 194.548 263.825 194.548 259.915C194.664 257.791 195.278 255.725 196.341 253.882C197.404 252.04 198.885 250.473 200.666 249.31Z" fill="#FAFAFA"/>
<path d="M212.743 270.171C212.743 263.752 208.231 260.905 202.681 264.139L199.242 266.153C193.679 269.363 189.179 277.17 189.179 283.588V285.314L212.78 271.692L212.743 270.171Z" fill="#FAFAFA"/>
<path d="M490.847 174.406L478.033 167.009C465.11 159.77 447.398 160.795 427.767 172.125C409.403 182.707 392.656 200.371 380.035 220.81C365.435 244.339 356.253 271.583 356.253 296.004C356.253 318.784 364.229 334.759 377.127 342.252L390.073 349.673C403.104 357.974 421.444 357.238 441.956 345.462C481.459 322.645 513.482 267.179 513.482 221.571C513.434 197.777 504.746 181.452 490.847 174.406Z" fill="#4066AF"/>
<path opacity="0.1" d="M389.567 349.371L377.127 342.252C364.229 334.772 356.265 318.772 356.265 295.992C356.265 271.571 365.447 244.351 380.035 220.823L394.128 229.015C379.528 252.544 370.37 279.752 370.37 304.149C370.37 325.927 377.658 341.492 389.567 349.371Z" fill="black"/>
<path opacity="0.4" d="M490.328 174.104C477.586 167.926 460.586 169.495 441.92 180.258C423.532 190.887 406.784 208.564 394.127 229.015L380.035 220.823C392.668 200.311 409.427 182.719 427.779 172.137C447.398 160.795 465.122 159.722 478.057 167.009L490.328 174.104Z" fill="white"/>
<path d="M409.825 345.558C404.624 345.667 399.503 344.268 395.081 341.528L394.876 341.396L394.465 341.166C385.042 334.747 379.854 321.62 379.854 304.137C379.854 282.418 387.974 256.947 402.151 234.155C414.458 214.271 430.228 198.115 446.577 188.667C456.17 183.129 465.557 180.221 473.689 180.221C477.821 180.159 481.914 181.021 485.67 182.743L486.105 182.984L486.322 183.093C497.314 188.655 503.612 202.7 503.612 221.631C503.612 264.115 473.689 315.937 436.901 337.161C427.284 342.638 417.957 345.558 409.825 345.558Z" fill="#FAFAFA"/>
<path d="M445.045 276.796C426.838 281.622 412.07 270.86 412.07 252.664V240.997C412.07 225.565 424.582 209.71 440.014 205.572L450.065 202.881C465.497 198.743 478.009 207.9 478.009 223.333V235C477.961 253.195 463.252 271.909 445.045 276.796Z" fill="#263238"/>
<path d="M394.707 389.623C394.827 387.692 397.904 366.577 400.028 354.632L420.684 356.406L413.155 399.951L399.606 399.07C394.2 399.275 394.622 391.529 394.707 389.623Z" fill="#FFA8A7"/>
<path d="M489.869 322.791L504.421 368.339L486.226 378.305L475.318 335.46L489.869 322.791Z" fill="#FFA8A7"/>
<path d="M458.016 283.782C467.668 281.369 478.371 282.575 482.039 290.297C485.707 298.019 493.73 325.759 493.73 325.759C488.739 332.486 481.431 337.124 473.219 338.778L458.016 283.782Z" fill="#4066AF"/>
<path opacity="0.3" d="M458.016 283.782C467.668 281.369 478.371 282.575 482.039 290.297C485.707 298.019 493.73 325.759 493.73 325.759C488.739 332.486 481.431 337.124 473.219 338.778L458.016 283.782Z" fill="black"/>
<path d="M437.963 289.549L429.903 292.095C421.131 296.921 417.97 304.667 414.29 314.646C411.604 321.731 411.358 329.509 413.59 336.75L423.858 368.302C423.858 368.302 419.031 382.998 413.469 397.176C439.229 406.828 471.385 389.526 479.143 375.337C479.481 372.67 479.034 361.208 479.65 347.863C480.325 333.625 481.99 317.312 480.084 309.132C476.525 293.965 469.876 280.608 456.628 284.156L437.963 289.549Z" fill="#F5F5F5"/>
<path d="M429.903 292.095C421.119 295.884 408.184 301.386 403.756 326.712C399.243 352.376 398.375 358.433 398.375 358.433C398.375 358.433 406.061 365.226 420.648 361.232C420.648 361.232 433.51 309.772 429.903 292.095Z" fill="#4066AF"/>
<path opacity="0.3" d="M429.903 292.095C421.119 295.884 408.184 301.386 403.756 326.712C399.243 352.376 398.375 358.433 398.375 358.433C398.375 358.433 406.061 365.226 420.648 361.232C420.648 361.232 433.51 309.772 429.903 292.095Z" fill="black"/>
<path d="M416.208 326.254C426.524 323.491 434.898 312.885 434.898 302.569V269.388C424.57 272.163 416.208 282.769 416.208 293.085V326.254Z" fill="#263238"/>
<path d="M421.034 359.639C422.663 352.798 424.377 345.016 425.993 336.714C425.993 336.714 425.921 353.872 423.387 366.879L421.034 359.639Z" fill="#E0E0E0"/>
<path d="M467.186 213.68C470.661 215.116 474.968 224.08 474.546 245.401C474.184 263.499 469.14 269.255 466.607 271.209C464.073 273.164 459.186 273.695 454.444 274.057V284.843C454.444 284.843 461.008 291.89 460.586 296.909C460.163 301.929 451.114 305.56 444.973 302.375C440.917 300.047 437.466 296.799 434.898 292.891V266.853C434.898 266.853 431.688 272.657 426.452 270.039C421.215 267.421 421.01 257.527 424.039 253.147C427.067 248.767 433.691 248.127 434.898 252.737C434.898 252.737 442.463 251.035 452.55 241.877C460.641 234.529 465.833 224.526 467.186 213.68Z" fill="#FFA8A7"/>
<path d="M457.171 245.533C457.199 246.157 457.036 246.774 456.704 247.302C456.372 247.83 455.887 248.245 455.313 248.49C454.239 248.827 453.31 248.079 453.262 246.8C453.231 246.178 453.392 245.561 453.722 245.033C454.052 244.505 454.535 244.09 455.108 243.844C456.242 243.506 457.111 244.254 457.171 245.533Z" fill="#263238"/>
<path d="M457.69 260.628L462.239 261.086C462.127 261.804 461.772 262.461 461.234 262.948C460.696 263.436 460.007 263.724 459.283 263.765C458.028 263.632 457.316 262.233 457.69 260.628Z" fill="#F28F8F"/>
<path d="M473.219 234.3L469.249 232.189C469.973 230.692 471.445 229.944 472.543 230.536C473.641 231.127 473.931 232.768 473.219 234.3Z" fill="#263238"/>
<path d="M472.302 239.851C472.332 240.473 472.17 241.089 471.838 241.616C471.505 242.143 471.019 242.555 470.444 242.795C469.37 243.145 468.453 242.384 468.392 241.105C468.363 240.485 468.523 239.87 468.853 239.344C469.184 238.817 469.667 238.405 470.239 238.161C471.324 237.811 472.241 238.572 472.302 239.851Z" fill="#263238"/>
<path d="M463.071 241.033L463.385 254.547L469.575 250.674L463.071 241.033Z" fill="#F28F8F"/>
<path d="M454.444 274.057C449.437 274.636 439.145 273.985 437.552 269.713C438.117 271.77 439.402 273.555 441.172 274.745C444.249 276.965 454.444 277.653 454.444 277.653V274.057Z" fill="#F28F8F"/>
<path d="M424.34 323.406L414.482 317.71H414.374C409.475 314.935 402.755 315.297 395.31 319.641C388.348 323.659 382.038 330.355 377.211 338.102C371.685 347.03 368.198 357.407 368.198 366.625C368.198 375.252 371.227 381.321 376.113 384.157L386.128 389.876C391.063 393.025 398.037 392.747 405.783 388.271C420.757 379.62 432.907 358.589 432.907 341.299C432.907 332.274 429.613 326.072 424.34 323.406Z" fill="#37474F"/>
<path d="M385.923 389.743L376.113 384.144C371.215 381.309 368.198 375.24 368.198 366.601C368.198 357.346 371.673 347.018 377.211 338.102L387.684 344.134C382.146 353.063 378.671 363.367 378.671 372.622C378.647 380.851 381.434 386.763 385.923 389.743Z" fill="#263238"/>
<path d="M424.135 323.261C419.309 320.92 412.866 321.511 405.783 325.602C398.701 329.692 392.511 336.328 387.684 344.087L377.211 338.054C382.038 330.295 388.36 323.575 395.31 319.593C402.755 315.298 409.475 314.887 414.374 317.65H414.483L424.135 323.261Z" fill="#455A64"/>
<path d="M417.547 346.511L408.51 351.736V337.257C408.51 334.928 407.303 333.758 405.783 334.627C404.263 335.495 403.056 338.077 403.056 340.406V354.885L394.007 360.109C393.259 360.704 392.657 361.462 392.249 362.327C391.841 363.191 391.637 364.137 391.654 365.093C391.654 367.096 392.716 368.109 394.007 367.349L403.056 362.136V376.615C403.056 378.944 404.263 380.114 405.783 379.246C407.303 378.377 408.51 375.783 408.51 373.466V358.987L417.547 353.763C418.297 353.17 418.9 352.412 419.309 351.548C419.717 350.683 419.919 349.736 419.9 348.78C419.9 346.777 418.838 345.763 417.547 346.511Z" fill="#F5F5F5"/>
</svg>
