<svg width="627" height="539" viewBox="0 0 627 539" fill="none" xmlns="http://www.w3.org/2000/svg">
<path d="M313.5 538.587C486.641 538.587 627 463.531 627 370.945C627 278.359 486.641 203.303 313.5 203.303C140.359 203.303 0 278.359 0 370.945C0 463.531 140.359 538.587 313.5 538.587Z" fill="#F5F5F5"/>
<path d="M87.3475 477.006L83.084 474.679C82.378 474.248 81.7907 473.67 81.3687 472.991C80.9467 472.312 80.7019 471.551 80.6536 470.768V178.102C80.7039 177.322 80.9498 176.563 81.3717 175.887C81.7935 175.21 82.3798 174.634 83.084 174.203L279.149 69.3499C279.905 68.9981 280.74 68.8149 281.586 68.8149C282.432 68.8149 283.267 68.9981 284.023 69.3499L288.287 71.6386C288.993 72.0675 289.582 72.6432 290.007 73.32C290.431 73.9968 290.679 74.7559 290.731 75.5369V368.254C290.681 369.037 290.434 369.799 290.01 370.478C289.585 371.157 288.995 371.735 288.287 372.165L92.2219 477.006C91.4656 477.358 90.631 477.541 89.7847 477.541C88.9384 477.541 88.1038 477.358 87.3475 477.006Z" fill="#37474F"/>
<path d="M290.703 75.1723C290.526 74.0153 289.508 73.5878 288.286 74.2417L92.221 179.083C91.5003 179.493 90.9063 180.069 90.4966 180.755L81.3586 175.876C81.7723 175.193 82.3654 174.618 83.083 174.203L279.148 69.3499C279.904 68.9981 280.739 68.8149 281.585 68.8149C282.431 68.8149 283.266 68.9981 284.022 69.3499L288.286 71.6386C288.939 72.0325 289.493 72.552 289.91 73.1617C290.327 73.7714 290.597 74.4571 290.703 75.1723Z" fill="#455A64"/>
<path d="M91.7865 477.194C91.7419 477.204 91.6953 477.204 91.6507 477.194L91.3927 477.282H91.2977C91.1483 477.282 90.9989 477.358 90.8496 477.395C89.8834 477.569 88.8849 477.499 87.9575 477.194C87.7705 477.132 87.5889 477.056 87.4144 476.968L83.083 474.679C82.3771 474.247 81.7897 473.669 81.3677 472.99C80.9458 472.311 80.7009 471.55 80.6526 470.768V178.101C80.6824 177.316 80.9252 176.551 81.3586 175.875L90.4966 180.755C90.0545 181.427 89.8067 182.194 89.7769 182.981V475.71C89.7552 476.131 89.8841 476.546 90.1435 476.892C90.3089 477.067 90.5233 477.196 90.7629 477.265C91.0026 477.334 91.2582 477.34 91.5013 477.282L91.7865 477.194Z" fill="#263238"/>
<path d="M160.531 166.357C160.468 166.049 160.318 165.763 160.097 165.527L159.934 165.401C159.805 165.311 159.655 165.253 159.496 165.231C159.337 165.209 159.175 165.224 159.024 165.275C158.903 165.302 158.788 165.349 158.685 165.413C158.082 165.798 157.61 166.335 157.327 166.96C156.964 167.668 156.769 168.44 156.756 169.224C156.702 169.809 156.897 170.392 157.3 170.846C157.478 171.006 157.711 171.103 157.959 171.121C158.207 171.14 158.454 171.078 158.657 170.947C158.948 170.784 159.206 170.576 159.418 170.33C159.611 170.097 159.784 169.848 159.934 169.588C160.351 168.832 160.578 167.998 160.599 167.149C160.607 166.883 160.584 166.618 160.531 166.357ZM192.412 100.374C191.704 99.9886 190.897 99.7886 190.077 99.7951C188.519 99.8624 187.005 100.295 185.677 101.053C181.971 103.153 179.11 106.32 177.531 110.069C177.273 110.597 177.028 111.151 176.811 111.691C176.594 112.232 176.363 112.785 176.173 113.351C175.983 113.917 175.766 114.483 175.589 115.049C175.521 115.238 175.467 115.439 175.399 115.615L175.046 116.759C175.052 116.814 175.052 116.868 175.046 116.923C174.842 117.614 174.652 118.331 174.435 119.035C174.326 119.425 174.231 119.79 174.123 120.167L173.81 121.286C173.376 122.783 172.941 124.216 172.453 125.587L172.14 126.417C171.991 126.807 171.842 127.197 171.679 127.574C171.516 127.951 171.421 128.153 171.298 128.417C171.095 128.882 170.877 129.322 170.647 129.75C170.416 130.177 170.362 130.29 170.212 130.554C166.777 136.666 162.581 139.055 160.151 142.199C158.019 144.941 157.435 147.129 154.557 151.467C153.647 152.851 152.507 154.448 151.013 156.359C146.872 161.641 145.392 164.256 144.889 165.841C144.884 165.883 144.884 165.925 144.889 165.967C144.889 166.092 144.889 166.206 144.794 166.319C144.789 166.356 144.789 166.394 144.794 166.432C144.789 166.533 144.789 166.633 144.794 166.734C144.747 167.042 144.724 167.353 144.726 167.664V179.41L149.289 181.849V170.091C149.277 169.477 149.374 168.866 149.574 168.281C150.076 166.696 151.543 164.093 155.697 158.811C157.191 156.887 158.332 155.29 159.241 153.907C162.093 149.581 162.704 147.38 164.835 144.664C167.266 141.508 171.461 139.131 174.897 133.007C175.392 132.065 175.832 131.1 176.214 130.114C178.413 125.084 179.404 118.306 182.106 112.609C183.683 108.865 186.546 105.706 190.253 103.618C193.037 102.134 195.073 102.008 196.635 102.687L192.412 100.374ZM212.412 115.389C212.033 115.188 211.627 115.036 211.204 114.936C209.479 114.559 206.913 115.489 204.333 115.212C207.959 119.551 212.996 116.759 215.766 117.375C216.197 117.471 216.609 117.628 216.988 117.841L212.412 115.389ZM222.08 131.523C221.944 131.6 221.817 131.688 221.7 131.787L221.509 131.963L221.333 132.152C220.571 133.063 220.152 134.18 220.138 135.333C220.093 135.912 220.282 136.486 220.668 136.943C220.719 136.988 220.774 137.03 220.831 137.068C220.956 137.158 221.104 137.216 221.261 137.238C221.418 137.26 221.578 137.245 221.727 137.194C221.852 137.167 221.971 137.12 222.08 137.056C222.216 136.98 222.338 136.88 222.474 136.792C222.671 136.621 222.848 136.431 223.003 136.226C223.649 135.351 224.003 134.318 224.021 133.258C224.021 131.737 223.152 130.944 222.08 131.523ZM225.067 120.897C223.601 120.139 222.009 119.617 220.355 119.35C219.649 119.199 218.998 119.035 218.468 118.872C220.285 120.369 222.511 121.374 224.904 121.777C226.356 122.039 227.769 122.461 229.113 123.034L225.067 120.897Z" fill="#4066AF"/>
<path d="M229.48 123.248L229.113 123.047C227.77 122.473 226.356 122.051 224.904 121.789C222.511 121.389 220.283 120.384 218.468 118.884C218.014 118.495 217.518 118.15 216.988 117.853C216.608 117.645 216.196 117.493 215.766 117.4C213.051 116.784 207.959 119.576 204.347 115.237L204.225 115.099C201.7 111.943 200.776 104.901 196.988 102.838L196.608 102.637C195.046 101.958 193.01 102.084 190.226 103.568C180.192 108.937 179.853 121.689 176.241 130.076C172.629 138.464 167.497 141.092 164.713 144.702C161.93 148.311 161.74 150.989 155.562 158.861C149.384 166.734 149.153 168.67 149.153 170.179V181.925L231.326 137.911V126.165C231.376 125.563 231.226 124.961 230.896 124.439C230.566 123.918 230.072 123.502 229.48 123.248ZM158.685 170.946C157.612 171.525 156.757 170.758 156.757 169.224C156.746 168.5 156.914 167.784 157.248 167.13C157.583 166.476 158.074 165.902 158.685 165.451C159.757 164.872 160.613 165.652 160.613 167.186C160.623 167.908 160.455 168.622 160.121 169.274C159.787 169.926 159.295 170.498 158.685 170.946ZM190.226 135.559C189.711 135.922 189.111 136.166 188.474 136.271C187.837 136.376 187.183 136.34 186.564 136.164C185.946 135.988 185.382 135.678 184.918 135.261C184.455 134.843 184.105 134.329 183.899 133.761C183.189 132.274 182.851 130.658 182.908 129.033C182.908 123.261 186.18 116.835 190.226 114.672C190.773 114.37 191.369 114.153 191.991 114.03C195.196 113.439 197.545 116.281 197.545 121.198C197.545 126.97 194.272 133.396 190.226 135.559ZM222.08 137.043C221.007 137.622 220.138 136.855 220.138 135.333C220.13 134.609 220.301 133.892 220.637 133.238C220.974 132.585 221.467 132.011 222.08 131.56C223.153 130.994 224.022 131.762 224.022 133.296C224.03 134.016 223.859 134.729 223.522 135.379C223.185 136.029 222.692 136.598 222.08 137.043Z" fill="#4066AF"/>
<path opacity="0.1" d="M229.48 123.248L229.113 123.047C227.77 122.473 226.356 122.051 224.904 121.789C222.511 121.389 220.283 120.384 218.468 118.884C218.014 118.495 217.518 118.15 216.988 117.853C216.608 117.645 216.196 117.493 215.766 117.4C213.051 116.784 207.959 119.576 204.347 115.237L204.225 115.099C201.7 111.943 200.776 104.901 196.988 102.838L196.608 102.637C195.046 101.958 193.01 102.084 190.226 103.568C180.192 108.937 179.853 121.689 176.241 130.076C172.629 138.464 167.497 141.092 164.713 144.702C161.93 148.311 161.74 150.989 155.562 158.861C149.384 166.734 149.153 168.67 149.153 170.179V181.925L231.326 137.911V126.165C231.376 125.563 231.226 124.961 230.896 124.439C230.566 123.918 230.072 123.502 229.48 123.248ZM158.685 170.946C157.612 171.525 156.757 170.758 156.757 169.224C156.746 168.5 156.914 167.784 157.248 167.13C157.583 166.476 158.074 165.902 158.685 165.451C159.757 164.872 160.613 165.652 160.613 167.186C160.623 167.908 160.455 168.622 160.121 169.274C159.787 169.926 159.295 170.498 158.685 170.946ZM190.226 135.559C189.711 135.922 189.111 136.166 188.474 136.271C187.837 136.376 187.183 136.34 186.564 136.164C185.946 135.988 185.382 135.678 184.918 135.261C184.455 134.843 184.105 134.329 183.899 133.761C183.189 132.274 182.851 130.658 182.908 129.033C182.908 123.261 186.18 116.835 190.226 114.672C190.773 114.37 191.369 114.153 191.991 114.03C195.196 113.439 197.545 116.281 197.545 121.198C197.545 126.97 194.272 133.396 190.226 135.559ZM222.08 137.043C221.007 137.622 220.138 136.855 220.138 135.333C220.13 134.609 220.301 133.892 220.637 133.238C220.974 132.585 221.467 132.011 222.08 131.56C223.153 130.994 224.022 131.762 224.022 133.296C224.03 134.016 223.859 134.729 223.522 135.379C223.185 136.029 222.692 136.598 222.08 137.043Z" fill="black"/>
<path opacity="0.25" d="M149.438 168.331C149.238 168.916 149.141 169.528 149.153 170.142V181.9L144.591 179.46V167.715C144.588 167.403 144.611 167.092 144.659 166.784C144.653 166.683 144.653 166.583 144.659 166.482C144.654 166.445 144.654 166.407 144.659 166.369C144.659 166.256 144.659 166.143 144.754 166.017V165.891L149.438 168.331Z" fill="black"/>
<path opacity="0.25" d="M164.7 144.714C162.568 147.43 161.984 149.631 159.105 153.957L154.557 151.492C157.408 147.154 158.019 144.966 160.151 142.224L164.7 144.714Z" fill="black"/>
<path opacity="0.25" d="M182.134 112.509C179.418 118.205 178.441 124.92 176.241 130.014C175.814 131.032 175.324 132.027 174.775 132.994L170.212 130.567C170.362 130.303 170.511 130.026 170.647 129.762C170.783 129.498 171.095 128.894 171.299 128.429C171.421 128.165 171.557 127.876 171.679 127.586C171.801 127.297 171.991 126.819 172.14 126.43L172.453 125.6C172.942 124.229 173.376 122.795 173.811 121.299L174.123 120.18C174.231 119.802 174.327 119.438 174.435 119.048C174.652 118.344 174.842 117.627 175.046 116.935C175.052 116.881 175.052 116.826 175.046 116.772L175.399 115.627C175.467 115.451 175.521 115.25 175.589 115.061C175.766 114.495 175.969 113.93 176.173 113.364C176.377 112.798 176.58 112.257 176.811 111.704C177.042 111.15 177.273 110.61 177.531 110.082L182.134 112.509Z" fill="black"/>
<path d="M157.313 166.96C156.95 167.668 156.756 168.44 156.743 169.224C156.688 169.809 156.883 170.392 157.286 170.846C156.896 170.386 156.706 169.807 156.756 169.224C156.772 168.442 156.961 167.671 157.313 166.96ZM160.626 167.149C160.625 166.882 160.593 166.617 160.531 166.356C160.588 166.617 160.616 166.883 160.613 167.149C160.596 167.997 160.374 168.831 159.961 169.588C160.378 168.832 160.605 167.998 160.626 167.149ZM220.831 137.068C220.956 137.158 221.104 137.216 221.261 137.238C221.418 137.26 221.578 137.245 221.727 137.194C221.577 137.238 221.418 137.249 221.263 137.227C221.108 137.205 220.96 137.151 220.831 137.068Z" fill="#4066AF"/>
<path d="M197.558 121.198C197.558 126.97 194.272 133.396 190.226 135.559C189.708 135.908 189.109 136.142 188.476 136.24C187.844 136.339 187.195 136.3 186.582 136.127C185.968 135.954 185.407 135.651 184.941 135.243C184.476 134.834 184.119 134.331 183.899 133.773C184.527 133.648 185.128 133.427 185.678 133.119C189.751 130.944 192.996 124.53 192.996 118.758C193.056 117.132 192.712 115.514 191.991 114.03C195.223 113.439 197.558 116.281 197.558 121.198Z" fill="#4066AF"/>
<path opacity="0.3" d="M197.558 121.198C197.558 126.97 194.272 133.396 190.226 135.559C189.708 135.908 189.109 136.142 188.476 136.24C187.844 136.339 187.195 136.3 186.582 136.127C185.968 135.954 185.407 135.651 184.941 135.243C184.476 134.834 184.119 134.331 183.899 133.773C184.527 133.648 185.128 133.427 185.678 133.119C189.751 130.944 192.996 124.53 192.996 118.758C193.056 117.132 192.712 115.514 191.991 114.03C195.223 113.439 197.558 116.281 197.558 121.198Z" fill="black"/>
<path d="M159.92 169.588C159.783 169.852 159.615 170.101 159.418 170.33C159.206 170.576 158.948 170.784 158.657 170.946C158.454 171.078 158.207 171.14 157.959 171.121C157.712 171.103 157.478 171.006 157.3 170.846C156.897 170.392 156.702 169.809 156.757 169.224C156.769 168.44 156.964 167.668 157.327 166.96C157.61 166.335 158.082 165.798 158.685 165.413C158.788 165.349 158.903 165.302 159.024 165.275C159.21 165.215 159.41 165.207 159.601 165.252C159.792 165.296 159.964 165.392 160.097 165.526C160.318 165.763 160.468 166.049 160.531 166.356C160.593 166.617 160.625 166.882 160.626 167.149C160.605 168.002 160.363 168.839 159.92 169.588Z" fill="#37474F"/>
<path d="M224.021 133.258C224.003 134.318 223.649 135.35 223.003 136.226C222.848 136.431 222.671 136.621 222.473 136.792C222.338 136.88 222.215 136.98 222.08 137.056C221.971 137.12 221.852 137.167 221.727 137.194C221.543 137.251 221.345 137.258 221.157 137.213C220.969 137.169 220.799 137.075 220.667 136.943C220.281 136.485 220.093 135.912 220.138 135.333C220.152 134.18 220.571 133.063 221.333 132.151L221.509 131.963L221.699 131.787C221.817 131.688 221.944 131.599 222.08 131.523C223.152 130.944 224.021 131.736 224.021 133.258Z" fill="#37474F"/>
<path d="M104.943 206.459L275.563 115.225C276.016 115.014 276.516 114.904 277.023 114.904C277.53 114.904 278.03 115.014 278.483 115.225L280.125 116.105C280.551 116.365 280.904 116.712 281.159 117.12C281.414 117.529 281.562 117.986 281.592 118.457V359.527C281.563 359.996 281.415 360.452 281.16 360.859C280.905 361.265 280.551 361.61 280.125 361.866L109.506 453.1C109.055 453.317 108.554 453.431 108.046 453.431C107.538 453.431 107.037 453.317 106.586 453.1L104.943 452.22C104.517 451.965 104.162 451.62 103.907 451.213C103.652 450.807 103.505 450.35 103.477 449.881V208.811C103.504 208.34 103.651 207.881 103.906 207.472C104.161 207.064 104.516 206.716 104.943 206.459Z" fill="#F5F5F5"/>
<path d="M281.537 118.041C281.347 117.488 280.791 117.312 280.18 117.664L109.505 208.899C109.073 209.151 108.718 209.501 108.474 209.917L103.911 207.478C104.147 207.059 104.504 206.711 104.943 206.472L275.563 115.237C276.012 115.02 276.51 114.907 277.016 114.907C277.522 114.907 278.02 115.02 278.469 115.237L280.125 116.105C280.488 116.325 280.799 116.609 281.042 116.941C281.284 117.274 281.453 117.648 281.537 118.041Z" fill="#FAFAFA"/>
<path d="M109.166 453.301C108.991 453.363 108.809 453.405 108.623 453.427H108.338C108.045 453.459 107.749 453.459 107.455 453.427C107.269 453.406 107.087 453.364 106.912 453.301L106.586 453.151L104.943 452.27C104.516 452.017 104.159 451.672 103.904 451.265C103.649 450.858 103.503 450.401 103.477 449.931V208.811C103.491 208.339 103.641 207.879 103.912 207.478L108.474 209.918C108.217 210.323 108.072 210.781 108.053 211.251V452.321C108.053 453.063 108.514 453.427 109.166 453.301Z" fill="#E0E0E0"/>
<path d="M176.567 151.09L176.336 151.442C175.791 152.265 175.397 153.166 175.168 154.108C175.168 154.183 175.168 154.221 175.168 154.259C175.165 154.28 175.165 154.301 175.168 154.322L172.385 168.834L171.516 173.474C171.516 173.663 171.421 173.851 171.366 174.052C171.313 174.24 171.25 174.425 171.176 174.606C171.176 174.732 171.081 174.857 171.027 174.983L175.589 177.423C175.807 176.937 175.966 176.431 176.064 175.914L176.96 171.273L179.676 156.761C179.882 155.598 180.37 154.494 181.102 153.529L176.567 151.09Z" fill="#4066AF"/>
<path d="M145.147 197.908C144.686 198.587 144.251 199.266 143.789 199.945C143.599 200.272 143.409 200.599 143.233 200.926C143.056 201.253 142.798 201.769 142.608 202.184C142.418 202.599 142.174 203.114 141.984 203.592C141.794 204.07 141.603 204.548 141.427 205.026C141.25 205.503 141.033 206.145 140.87 206.711C140.762 207.075 140.653 207.44 140.544 207.83C140.291 208.719 140.06 209.624 139.852 210.546C139.852 210.861 139.703 211.187 139.648 211.502C139.594 211.816 139.472 212.282 139.404 212.659C139.404 212.659 139.404 212.659 139.404 212.722C139.404 213.024 139.404 213.225 139.567 213.313C139.588 213.322 139.611 213.326 139.635 213.326C139.658 213.326 139.681 213.322 139.703 213.313L143.627 210.471L144.265 210.005L144.577 209.792L144.916 209.54L145.188 209.351L145.419 209.175C146.565 205.331 148.476 201.719 151.054 198.524L146.491 196.084C146.043 196.688 145.582 197.304 145.147 197.908Z" fill="#4066AF"/>
<path d="M194.517 119.161C194.299 119.488 194.109 119.815 193.919 120.142C193.795 120.322 193.686 120.512 193.593 120.708C193.43 120.972 193.295 121.249 193.145 121.525C192.996 121.802 192.901 121.965 192.792 122.192C192.561 122.619 192.358 123.047 192.168 123.449C191.978 123.852 191.733 124.38 191.543 124.845C191.353 125.26 191.204 125.675 191.054 126.103C190.81 126.732 190.606 127.36 190.416 128.002C190.308 128.341 190.226 128.668 190.131 128.995C190.133 129.02 190.133 129.045 190.131 129.071C190.131 129.247 190.036 129.41 190.009 129.586C189.9 129.976 189.819 130.378 189.751 130.768C189.683 131.158 189.615 131.384 189.52 131.699C189.425 132.013 189.344 132.353 189.235 132.68C189.126 133.007 189.018 133.296 188.909 133.61C188.909 133.61 188.909 133.61 188.909 133.698C188.773 134.038 188.624 134.39 188.461 134.742C188.298 135.094 188.162 135.434 187.972 135.798C187.926 135.893 187.885 135.989 187.85 136.088C187.714 136.352 187.565 136.616 187.429 136.892L186.709 138.15C186.546 138.452 186.384 138.728 186.207 139.018L190.783 141.457C192.427 138.888 193.627 136.096 194.34 133.183C195.204 129.065 196.83 125.117 199.147 121.513L194.517 119.161Z" fill="#4066AF"/>
<path d="M221.659 128.567C221.432 128.44 221.176 128.362 220.912 128.341C221.355 128.996 221.951 129.55 222.656 129.964C223.361 130.377 224.157 130.639 224.985 130.73C225.378 130.735 225.766 130.812 226.126 130.957L221.659 128.567Z" fill="#4066AF"/>
<path opacity="0.4" d="M221.659 128.567C221.432 128.44 221.176 128.362 220.912 128.341C221.355 128.996 221.951 129.55 222.656 129.964C223.361 130.377 224.157 130.639 224.985 130.73C225.378 130.735 225.766 130.812 226.126 130.957L221.659 128.567Z" fill="white"/>
<path d="M238.672 146.94C237.955 146.615 237.164 146.457 236.367 146.479C235.57 146.501 234.79 146.702 234.096 147.065C228.787 149.228 226.492 150.209 223.75 151.266C223.22 154.535 225.297 154.837 226.329 154.447C230.185 153.039 232.154 152.171 238.672 149.518C239.36 149.16 240.132 148.96 240.921 148.936C241.71 148.912 242.494 149.064 243.207 149.379L238.672 146.94Z" fill="#4066AF"/>
<path opacity="0.4" d="M238.672 146.94C237.955 146.615 237.164 146.457 236.367 146.479C235.57 146.501 234.79 146.702 234.096 147.065C228.787 149.228 226.492 150.209 223.75 151.266C223.22 154.535 225.297 154.837 226.329 154.447C230.185 153.039 232.154 152.171 238.672 149.518C239.36 149.16 240.132 148.96 240.921 148.936C241.71 148.912 242.494 149.064 243.207 149.379L238.672 146.94Z" fill="white"/>
<path d="M175.562 177.423C174.579 179.414 173.197 181.215 171.488 182.729L157.205 192.676C154.921 194.399 152.862 196.361 151.067 198.524L146.505 196.084C148.295 193.915 150.355 191.948 152.642 190.224L166.953 180.29C168.631 178.765 169.989 176.966 170.959 174.983L175.562 177.423Z" fill="#4066AF"/>
<path opacity="0.4" d="M175.562 177.423C174.579 179.414 173.197 181.215 171.488 182.729L157.205 192.676C154.921 194.399 152.862 196.361 151.067 198.524L146.505 196.084C148.295 193.915 150.355 191.948 152.642 190.224L166.953 180.29C168.631 178.765 169.989 176.966 170.959 174.983L175.562 177.423Z" fill="white"/>
<path d="M190.715 141.557C188.745 144.931 186.317 148.059 183.492 150.863C182.602 151.67 181.81 152.564 181.129 153.529L176.567 151.089C177.236 150.116 178.03 149.221 178.929 148.423C181.75 145.618 184.173 142.491 186.139 139.118L190.715 141.557Z" fill="#4066AF"/>
<path opacity="0.4" d="M190.715 141.557C188.745 144.931 186.317 148.059 183.492 150.863C182.602 151.67 181.81 152.564 181.129 153.529L176.567 151.089C177.236 150.116 178.03 149.221 178.929 148.423C181.75 145.618 184.173 142.491 186.139 139.118L190.715 141.557Z" fill="white"/>
<path d="M216.486 110.333C214.802 109.515 212.562 109.653 209.928 110.936C206.017 112.835 202.08 116.859 199.066 121.613L194.503 119.098C197.491 114.344 201.428 110.295 205.366 108.421C206.645 107.752 208.079 107.377 209.548 107.327C210.427 107.317 211.293 107.52 212.06 107.918L216.486 110.333Z" fill="#4066AF"/>
<path opacity="0.4" d="M216.486 110.333C214.802 109.515 212.562 109.653 209.928 110.936C206.017 112.835 202.08 116.859 199.066 121.613L194.503 119.098C197.491 114.344 201.428 110.295 205.366 108.421C206.645 107.752 208.079 107.377 209.548 107.327C210.427 107.317 211.293 107.52 212.06 107.918L216.486 110.333Z" fill="white"/>
<path opacity="0.15" d="M151.108 198.524C148.531 201.718 146.62 205.331 145.474 209.175L145.243 209.351L144.971 209.54L144.632 209.791L144.32 210.005L143.681 210.47L139.812 213.338C139.79 213.347 139.767 213.351 139.744 213.351C139.72 213.351 139.697 213.347 139.676 213.338C139.527 213.25 139.459 213.048 139.513 212.747C139.513 212.747 139.513 212.747 139.513 212.684C139.513 212.306 139.662 211.917 139.757 211.527C139.852 211.137 139.893 210.885 139.961 210.571C140.169 209.657 140.4 208.752 140.654 207.855C140.762 207.465 140.871 207.1 140.979 206.736C141.142 206.17 141.332 205.616 141.536 205.05C141.74 204.485 141.889 204.095 142.093 203.617C142.296 203.139 142.487 202.674 142.717 202.208C142.948 201.743 143.125 201.341 143.342 200.951C143.559 200.561 143.709 200.297 143.899 199.97C144.292 199.291 144.727 198.612 145.256 197.933C145.786 197.254 146.153 196.675 146.614 196.109L151.108 198.524Z" fill="black"/>
<path opacity="0.15" d="M181.129 153.529C180.397 154.494 179.91 155.598 179.703 156.761L176.988 171.273L176.092 175.914C175.994 176.431 175.834 176.937 175.616 177.423L171.054 174.983C171.054 174.857 171.163 174.732 171.204 174.606C171.277 174.425 171.341 174.24 171.394 174.052C171.394 173.851 171.502 173.663 171.543 173.474L172.412 168.834L175.195 154.322C175.192 154.301 175.192 154.28 175.195 154.259C175.195 154.259 175.195 154.183 175.195 154.108C175.424 153.166 175.819 152.265 176.363 151.442L176.594 151.09L181.129 153.529Z" fill="black"/>
<path opacity="0.15" d="M199.079 121.613C196.762 125.217 195.136 129.166 194.273 133.283C193.56 136.196 192.36 138.988 190.715 141.558L186.14 139.118C186.316 138.829 186.479 138.552 186.642 138.251L187.362 136.993C187.497 136.716 187.647 136.452 187.783 136.188C187.817 136.09 187.858 135.993 187.905 135.899C188.081 135.547 188.244 135.182 188.394 134.843C188.543 134.503 188.706 134.138 188.842 133.799C188.842 133.799 188.842 133.736 188.842 133.711C188.95 133.396 189.072 133.095 189.168 132.78C189.263 132.466 189.371 132.126 189.453 131.799C189.534 131.472 189.616 131.171 189.683 130.869C189.751 130.567 189.833 130.077 189.941 129.687C189.941 129.511 190.023 129.347 190.064 129.171C190.066 129.146 190.066 129.121 190.064 129.096C190.159 128.769 190.24 128.442 190.349 128.102C190.539 127.461 190.743 126.845 190.987 126.203C191.136 125.776 191.286 125.361 191.476 124.946C191.666 124.48 191.883 124.015 192.1 123.55C192.318 123.085 192.494 122.695 192.725 122.292C192.834 122.066 192.956 121.852 193.078 121.626C193.2 121.4 193.363 121.073 193.526 120.808C193.618 120.612 193.727 120.423 193.852 120.243C194.042 119.916 194.232 119.589 194.449 119.262L199.079 121.613Z" fill="black"/>
<path d="M139.771 213.338L143.627 210.471C142.092 211.615 140.001 213.112 139.771 213.338Z" fill="#4066AF"/>
<path d="M243.221 149.405C242.506 149.09 241.721 148.937 240.93 148.959C240.139 148.98 239.365 149.176 238.672 149.53C232.168 152.196 230.199 153.064 226.343 154.485C225.311 154.862 223.234 154.561 223.764 151.291C223.758 151.22 223.758 151.148 223.764 151.077L224.646 146.437L227.117 133.786C227.117 133.786 227.674 131.787 226.248 131.045H226.14C225.79 130.885 225.403 130.807 225.013 130.818C224.182 130.724 223.385 130.458 222.68 130.04C221.975 129.622 221.38 129.063 220.939 128.404C220.177 127.354 219.648 126.173 219.385 124.932C219.122 123.69 219.128 122.412 219.405 121.173C220.451 115.74 219.31 111.943 216.689 110.534L216.486 110.408C214.802 109.591 212.562 109.729 209.928 111.012C202.989 114.382 195.983 124.38 194.272 133.358C193.2 139.017 187.049 147.732 183.492 150.964C179.934 154.196 179.703 156.862 179.703 156.862L176.988 171.374L176.092 176.014C175.44 179.485 171.597 182.843 171.597 182.843L157.205 192.676C151.494 196.884 147.373 202.66 145.433 209.175C145.433 209.175 140.002 213.023 139.73 213.338L141.563 212.37L240.301 159.792C240.301 159.792 241.442 159.226 241.659 159.075C241.876 158.924 245.882 155.453 245.882 155.453C245.814 152.46 244.877 150.323 243.221 149.405ZM214.707 122.732C213.648 128.253 209.357 134.402 205.094 136.477C202.148 137.898 199.989 137.018 199.269 134.503C198.953 133.093 198.953 131.637 199.269 130.227C200.315 124.707 204.632 118.557 208.896 116.495C209.29 116.296 209.704 116.132 210.131 116.004C213.621 115.024 215.59 117.778 214.68 122.732H214.707Z" fill="#4066AF"/>
<path d="M139.784 213.351L240.369 159.805L241.727 159.088C241.972 158.95 245.95 155.454 245.95 155.454L145.474 209.176C145.474 209.176 139.391 213.552 139.784 213.351Z" fill="#4066AF"/>
<path opacity="0.3" d="M139.784 213.351L240.369 159.805L241.727 159.088C241.972 158.95 245.95 155.454 245.95 155.454L145.474 209.176C145.474 209.176 139.391 213.552 139.784 213.351Z" fill="black"/>
<path d="M210.159 116.004C209.731 116.132 209.318 116.296 208.923 116.495C204.66 118.557 200.342 124.707 199.296 130.227C198.981 131.637 198.981 133.093 199.296 134.503C200.016 137.018 202.175 137.898 205.121 136.477C209.385 134.402 213.675 128.253 214.735 122.732C215.59 117.778 213.621 115.024 210.159 116.004ZM199.568 134.402C199.268 133.041 199.268 131.638 199.568 130.278C200.613 124.82 204.863 118.746 209.073 116.721C209.422 116.55 209.786 116.403 210.159 116.281C210.437 117.61 210.437 118.976 210.159 120.305C209.113 125.826 204.809 131.975 200.532 134.05C200.221 134.202 199.899 134.332 199.568 134.44V134.402Z" fill="#4066AF"/>
<path opacity="0.4" d="M210.159 116.004C209.731 116.132 209.318 116.296 208.923 116.495C204.66 118.557 200.342 124.707 199.296 130.227C198.981 131.637 198.981 133.093 199.296 134.503C200.016 137.018 202.175 137.898 205.121 136.477C209.385 134.402 213.675 128.253 214.735 122.732C215.59 117.778 213.621 115.024 210.159 116.004ZM199.568 134.402C199.268 133.041 199.268 131.638 199.568 130.278C200.613 124.82 204.863 118.746 209.073 116.721C209.422 116.55 209.786 116.403 210.159 116.281C210.437 117.61 210.437 118.976 210.159 120.305C209.113 125.826 204.809 131.975 200.532 134.05C200.221 134.202 199.899 134.332 199.568 134.44V134.402Z" fill="black"/>
<path d="M130.959 284.401C130.744 284.402 130.533 284.35 130.348 284.25C130.124 284.117 129.945 283.929 129.83 283.707C129.715 283.485 129.669 283.238 129.696 282.993V277.623C129.716 277.141 129.863 276.67 130.123 276.252C130.383 275.833 130.749 275.48 131.19 275.221L136.254 272.518C136.464 272.389 136.709 272.317 136.96 272.31C137.212 272.302 137.461 272.36 137.679 272.476C137.898 272.592 138.077 272.762 138.197 272.967C138.317 273.172 138.373 273.404 138.359 273.637V279.057C138.341 279.54 138.195 280.011 137.935 280.43C137.675 280.849 137.307 281.202 136.865 281.459L131.801 284.175C131.546 284.317 131.256 284.396 130.959 284.401ZM137.096 273.411C137.016 273.431 136.938 273.461 136.865 273.499L131.801 276.202C131.546 276.361 131.334 276.572 131.181 276.818C131.028 277.064 130.938 277.34 130.918 277.623V283.043C130.895 283.117 130.895 283.196 130.918 283.27C130.999 283.257 131.077 283.232 131.149 283.194L136.214 280.478C136.468 280.319 136.68 280.109 136.833 279.862C136.986 279.616 137.076 279.34 137.096 279.057V273.637C137.103 273.583 137.103 273.528 137.096 273.473V273.411Z" fill="#455A64"/>
<path d="M142.663 271.738L162.622 261.061C163.288 260.709 163.817 260.986 163.817 261.69V263.136C163.793 263.518 163.673 263.888 163.465 264.218C163.258 264.548 162.969 264.828 162.622 265.035L142.663 275.712C142.011 276.064 141.468 275.787 141.468 275.083V273.637C141.492 273.255 141.612 272.885 141.82 272.555C142.028 272.225 142.316 271.945 142.663 271.738Z" fill="#E0E0E0"/>
<path d="M180.423 257.955C180.209 257.957 179.997 257.905 179.812 257.804C179.586 257.673 179.404 257.485 179.287 257.263C179.169 257.041 179.121 256.793 179.147 256.547V251.127C179.17 250.644 179.319 250.173 179.581 249.754C179.844 249.336 180.212 248.983 180.654 248.725L185.719 246.021C185.928 245.882 186.176 245.801 186.433 245.788C186.691 245.775 186.947 245.829 187.172 245.946C187.391 246.068 187.568 246.245 187.683 246.456C187.799 246.668 187.847 246.905 187.823 247.141V252.56C187.805 253.043 187.66 253.515 187.399 253.934C187.139 254.352 186.772 254.706 186.33 254.962L181.265 257.679C181.016 257.839 180.726 257.934 180.423 257.955ZM186.547 246.964C186.473 246.989 186.4 247.019 186.33 247.052L181.265 249.756C181.009 249.914 180.795 250.124 180.64 250.371C180.484 250.617 180.392 250.893 180.369 251.177V256.597C180.342 256.671 180.342 256.75 180.369 256.824C180.449 256.809 180.527 256.784 180.6 256.748L185.664 254.032C185.92 253.874 186.133 253.664 186.286 253.418C186.44 253.171 186.529 252.895 186.547 252.611V247.191C186.571 247.117 186.571 247.038 186.547 246.964Z" fill="#455A64"/>
<path d="M192.127 245.292L212.086 234.616C212.752 234.263 213.281 234.54 213.281 235.244V236.69C213.258 237.072 213.137 237.442 212.929 237.772C212.722 238.102 212.433 238.382 212.086 238.589L192.127 249.266C191.462 249.618 190.932 249.341 190.932 248.637V247.191C190.963 246.811 191.087 246.443 191.294 246.114C191.501 245.785 191.786 245.504 192.127 245.292Z" fill="#E0E0E0"/>
<path d="M229.874 231.509C229.659 231.51 229.449 231.458 229.263 231.359C229.042 231.223 228.864 231.035 228.749 230.813C228.635 230.592 228.587 230.346 228.611 230.101V224.681C228.633 224.199 228.78 223.728 229.04 223.31C229.3 222.892 229.665 222.538 230.105 222.279L235.169 219.575C235.38 219.442 235.628 219.367 235.883 219.358C236.138 219.35 236.391 219.408 236.612 219.526C236.833 219.644 237.014 219.817 237.133 220.026C237.253 220.235 237.306 220.471 237.287 220.707V226.115C237.267 226.598 237.119 227.07 236.856 227.489C236.593 227.908 236.224 228.26 235.78 228.516L230.716 231.233C230.467 231.394 230.176 231.49 229.874 231.509ZM230.716 223.31C230.463 223.471 230.253 223.682 230.1 223.928C229.948 224.174 229.856 224.448 229.833 224.731V230.151C229.806 230.225 229.806 230.304 229.833 230.378C229.911 230.369 229.986 230.344 230.05 230.302L235.115 227.586C235.371 227.428 235.585 227.218 235.741 226.971C235.896 226.725 235.988 226.449 236.011 226.165V220.757C236.036 220.68 236.036 220.596 236.011 220.519C236.011 220.519 235.93 220.519 235.78 220.607L230.716 223.31Z" fill="#455A64"/>
<path d="M241.591 218.846L261.551 208.169C262.203 207.817 262.746 208.094 262.746 208.798V210.244C262.715 210.624 262.591 210.992 262.384 211.321C262.177 211.65 261.892 211.931 261.551 212.143L241.591 222.82C240.926 223.172 240.396 222.895 240.396 222.191V220.745C240.42 220.363 240.541 219.993 240.749 219.663C240.956 219.333 241.245 219.053 241.591 218.846Z" fill="#E0E0E0"/>
<path d="M142.717 245.279V247.392C142.717 248.549 143.586 249.014 144.659 248.436L261.429 186.049C261.995 185.705 262.465 185.242 262.803 184.698C263.14 184.154 263.334 183.544 263.37 182.918V180.793C263.37 179.648 262.501 179.183 261.429 179.749L144.659 242.148C144.093 242.492 143.622 242.955 143.285 243.499C142.947 244.043 142.753 244.653 142.717 245.279Z" fill="#E0E0E0"/>
<path d="M133.823 228.78V230.893C133.823 232.05 134.692 232.515 135.779 231.937L252.481 169.55C253.051 169.209 253.525 168.747 253.865 168.203C254.205 167.658 254.401 167.047 254.436 166.419V164.294C254.436 163.149 253.567 162.684 252.481 163.25L135.779 225.687C135.214 226.024 134.743 226.48 134.403 227.018C134.063 227.555 133.865 228.159 133.823 228.78Z" fill="#455A64"/>
<path d="M142.717 258.069V260.194C142.717 261.338 143.586 261.803 144.659 261.238L261.429 198.851C261.995 198.507 262.465 198.044 262.803 197.5C263.14 196.956 263.334 196.346 263.37 195.72V193.595C263.37 192.45 262.501 191.985 261.429 192.551L144.659 254.95C144.094 255.293 143.625 255.754 143.288 256.295C142.95 256.837 142.755 257.444 142.717 258.069Z" fill="#E0E0E0"/>
<path d="M129.927 259.163C132.982 256.358 133.742 255.164 133.742 254.132C133.742 253.101 133.294 252.548 131.923 253.277C131.33 253.597 130.819 254.032 130.428 254.554C130.036 255.075 129.772 255.67 129.655 256.295L126.315 256.987C126.606 255.366 127.266 253.822 128.252 252.455C129.237 251.089 130.526 249.934 132.031 249.065C135.371 247.279 137.313 248.612 137.313 251.58C137.126 254.469 135.769 257.186 133.511 259.188V261.64L129.927 263.551V259.163Z" fill="#455A64"/>
<path d="M129.886 267.311C129.881 266.707 130.046 266.112 130.365 265.585C130.684 265.058 131.146 264.617 131.706 264.306C132.9 263.665 133.511 264.23 133.511 265.375C133.522 265.982 133.36 266.581 133.044 267.113C132.727 267.644 132.266 268.09 131.706 268.405C130.497 269.047 129.886 268.443 129.886 267.311Z" fill="#455A64"/>
<path d="M131.746 277.623L133.24 278.667L131.882 281.056C131.765 281.202 131.702 281.378 131.702 281.559C131.702 281.741 131.765 281.917 131.882 282.063C132.14 282.239 132.507 282.063 132.724 281.685L134.082 279.309L135.575 280.352C135.792 280.503 136.118 280.352 136.308 280.025C136.409 279.9 136.463 279.748 136.463 279.591C136.463 279.435 136.409 279.283 136.308 279.158L134.815 278.114L136.173 275.725C136.289 275.579 136.353 275.403 136.353 275.222C136.353 275.04 136.289 274.864 136.173 274.718C135.915 274.542 135.548 274.718 135.331 275.096L133.973 277.485L132.479 276.441C132.262 276.29 131.936 276.441 131.746 276.756C131.646 276.881 131.592 277.033 131.592 277.19C131.592 277.346 131.646 277.498 131.746 277.623Z" fill="#4066AF"/>
<path d="M130.959 332.15C130.746 332.155 130.535 332.108 130.348 332.012C130.124 331.878 129.945 331.69 129.83 331.468C129.715 331.246 129.669 330.999 129.696 330.754V325.334C129.714 324.851 129.86 324.38 130.12 323.961C130.38 323.542 130.748 323.189 131.19 322.932L136.254 320.229C136.464 320.1 136.709 320.028 136.96 320.021C137.212 320.013 137.461 320.071 137.679 320.187C137.898 320.303 138.077 320.473 138.197 320.678C138.317 320.883 138.373 321.115 138.359 321.348V326.768C138.341 327.251 138.195 327.722 137.935 328.141C137.675 328.56 137.307 328.913 136.865 329.17L131.801 331.873C131.552 332.034 131.261 332.129 130.959 332.15ZM137.096 321.172C137.013 321.186 136.935 321.216 136.865 321.26L131.801 323.963C131.546 324.122 131.334 324.333 131.181 324.579C131.028 324.825 130.938 325.101 130.918 325.385V330.805C130.895 330.878 130.895 330.957 130.918 331.031C130.999 331.018 131.077 330.993 131.149 330.955L136.214 328.239C136.468 328.08 136.68 327.87 136.833 327.623C136.986 327.377 137.076 327.102 137.096 326.818V321.398C137.109 321.323 137.109 321.247 137.096 321.172Z" fill="#455A64"/>
<path d="M142.663 319.486L162.622 308.823C163.288 308.47 163.817 308.747 163.817 309.451V310.885C163.796 311.268 163.676 311.642 163.468 311.974C163.26 312.306 162.971 312.588 162.622 312.796L142.663 323.473C142.011 323.825 141.468 323.536 141.468 322.832V321.398C141.491 321.015 141.611 320.642 141.819 320.31C142.026 319.978 142.315 319.696 142.663 319.486Z" fill="#E0E0E0"/>
<path d="M180.423 305.704C180.21 305.711 179.998 305.663 179.812 305.566C179.586 305.434 179.404 305.246 179.287 305.024C179.169 304.802 179.121 304.554 179.147 304.308V298.888C179.168 298.404 179.316 297.932 179.578 297.514C179.841 297.095 180.21 296.742 180.654 296.486L185.719 293.783C185.928 293.644 186.176 293.563 186.433 293.549C186.691 293.536 186.947 293.591 187.172 293.707C187.391 293.829 187.568 294.006 187.683 294.217C187.799 294.429 187.847 294.666 187.823 294.902V300.322C187.805 300.805 187.66 301.276 187.399 301.695C187.139 302.114 186.772 302.467 186.33 302.724L181.265 305.427C181.016 305.588 180.726 305.683 180.423 305.704ZM186.547 294.726C186.47 294.743 186.396 294.773 186.33 294.814L181.265 297.517C181.009 297.675 180.795 297.886 180.64 298.132C180.484 298.378 180.392 298.654 180.369 298.938V304.358C180.342 304.432 180.342 304.511 180.369 304.585C180.449 304.57 180.527 304.545 180.6 304.509L185.664 301.793C185.919 301.634 186.131 301.424 186.284 301.177C186.437 300.931 186.527 300.656 186.547 300.372V294.952C186.571 294.878 186.571 294.799 186.547 294.726Z" fill="#455A64"/>
<path d="M192.127 293.041L212.086 282.377C212.752 282.025 213.281 282.301 213.281 283.006V284.439C213.26 284.823 213.14 285.196 212.932 285.528C212.725 285.86 212.435 286.142 212.086 286.351L192.127 297.027C191.462 297.379 190.932 297.027 190.932 296.386V294.952C190.961 294.57 191.084 294.2 191.291 293.868C191.498 293.537 191.784 293.254 192.127 293.041Z" fill="#E0E0E0"/>
<path d="M229.874 279.258C229.661 279.263 229.45 279.215 229.263 279.12C229.042 278.984 228.864 278.796 228.749 278.574C228.635 278.353 228.587 278.107 228.611 277.862V272.442C228.633 271.96 228.78 271.49 229.04 271.071C229.3 270.653 229.665 270.299 230.105 270.04L235.169 267.336C235.379 267.204 235.625 267.129 235.879 267.12C236.133 267.111 236.385 267.168 236.605 267.284C236.826 267.401 237.007 267.573 237.127 267.78C237.248 267.987 237.303 268.221 237.287 268.456V273.876C237.267 274.36 237.119 274.831 236.856 275.25C236.593 275.669 236.224 276.021 235.78 276.278L230.716 278.981C230.467 279.143 230.176 279.238 229.874 279.258ZM230.716 271.071C230.463 271.232 230.253 271.443 230.1 271.689C229.948 271.935 229.856 272.21 229.833 272.492V277.912C229.806 277.986 229.806 278.065 229.833 278.139C229.909 278.123 229.982 278.097 230.05 278.063L235.115 275.347C235.371 275.189 235.585 274.979 235.741 274.732C235.896 274.486 235.988 274.21 236.011 273.926V268.506C236.035 268.432 236.035 268.353 236.011 268.28C235.93 268.298 235.852 268.328 235.78 268.368L230.716 271.071Z" fill="#455A64"/>
<path d="M241.591 266.594L261.551 255.93C262.203 255.578 262.746 255.855 262.746 256.559V257.993C262.717 258.375 262.594 258.745 262.387 259.077C262.18 259.408 261.894 259.691 261.551 259.904L241.591 270.581C240.926 270.933 240.396 270.644 240.396 269.939V268.506C240.418 268.122 240.538 267.749 240.746 267.417C240.953 267.085 241.243 266.803 241.591 266.594Z" fill="#E0E0E0"/>
<path d="M142.717 293.028V295.153C142.717 296.298 143.586 296.763 144.659 296.197L261.429 233.811C261.995 233.466 262.465 233.003 262.803 232.459C263.14 231.915 263.334 231.306 263.37 230.679V228.554C263.37 227.41 262.501 226.944 261.429 227.51L144.659 289.909C144.094 290.252 143.625 290.713 143.288 291.255C142.95 291.796 142.755 292.404 142.717 293.028Z" fill="#E0E0E0"/>
<path d="M142.717 305.83V307.955C142.717 309.099 143.586 309.565 144.659 308.999L261.429 246.6C261.996 246.26 262.468 245.799 262.805 245.257C263.143 244.715 263.337 244.106 263.37 243.481V241.356C263.37 240.199 262.501 239.734 261.429 240.312L144.659 302.711C144.094 303.054 143.625 303.515 143.288 304.057C142.95 304.598 142.755 305.205 142.717 305.83Z" fill="#E0E0E0"/>
<path d="M129.927 306.924C132.982 304.12 133.742 302.925 133.742 301.894C133.742 300.863 133.294 300.309 131.923 301.039C131.33 301.358 130.819 301.794 130.428 302.315C130.036 302.836 129.772 303.431 129.655 304.057L126.315 304.748C126.606 303.128 127.266 301.583 128.252 300.217C129.237 298.851 130.526 297.695 132.031 296.826C135.371 295.04 137.313 296.373 137.313 299.404C137.126 302.293 135.769 305.01 133.511 307.012V309.464L129.927 311.376V306.924Z" fill="#455A64"/>
<path d="M129.886 315.073C129.881 314.468 130.046 313.873 130.365 313.346C130.684 312.819 131.146 312.378 131.706 312.067C132.9 311.426 133.511 311.992 133.511 313.136C133.52 313.743 133.359 314.341 133.042 314.873C132.725 315.404 132.265 315.85 131.706 316.167C130.497 316.808 129.886 316.23 129.886 315.073Z" fill="#455A64"/>
<path d="M181.21 298.888L182.704 299.932L181.346 302.321C181.229 302.467 181.166 302.643 181.166 302.824C181.166 303.005 181.229 303.182 181.346 303.327C181.591 303.503 181.971 303.327 182.188 302.95L183.546 300.573L185.039 301.617C185.257 301.768 185.583 301.617 185.759 301.29C185.859 301.164 185.914 301.012 185.914 300.856C185.914 300.7 185.859 300.548 185.759 300.422L184.265 299.378L185.623 296.989C185.733 296.838 185.785 296.657 185.773 296.475C185.761 296.294 185.684 296.121 185.555 295.983C185.311 295.82 184.931 295.983 184.714 296.36L183.356 298.75L181.862 297.706C181.659 297.555 181.333 297.706 181.143 298.02C181.05 298.152 181.006 298.308 181.018 298.465C181.03 298.622 181.098 298.77 181.21 298.888Z" fill="#4066AF"/>
<path d="M130.959 379.911C130.744 379.912 130.533 379.86 130.348 379.76C130.129 379.638 129.951 379.461 129.836 379.25C129.721 379.039 129.672 378.801 129.696 378.566V373.146C129.714 372.663 129.86 372.191 130.12 371.773C130.38 371.354 130.748 371.001 131.19 370.744L136.254 368.04C136.464 367.912 136.709 367.84 136.96 367.832C137.212 367.825 137.461 367.882 137.679 367.999C137.898 368.115 138.077 368.285 138.197 368.49C138.317 368.695 138.373 368.927 138.359 369.159V374.579C138.341 375.062 138.195 375.534 137.935 375.953C137.675 376.371 137.307 376.724 136.865 376.981L131.801 379.685C131.546 379.827 131.256 379.905 130.959 379.911ZM137.096 368.933C137.013 368.947 136.935 368.977 136.865 369.021L131.801 371.725C131.546 371.883 131.334 372.094 131.181 372.34C131.028 372.587 130.938 372.862 130.918 373.146V378.566C130.897 378.64 130.897 378.718 130.918 378.792C131.001 378.778 131.08 378.748 131.149 378.704L136.213 376C136.468 375.842 136.68 375.631 136.833 375.385C136.986 375.138 137.076 374.863 137.096 374.579V369.159C137.109 369.084 137.109 369.008 137.096 368.933Z" fill="#455A64"/>
<path d="M142.663 367.248L162.622 356.571C163.288 356.219 163.817 356.509 163.817 357.213V358.646C163.796 359.03 163.676 359.403 163.468 359.735C163.26 360.068 162.971 360.349 162.622 360.558L142.663 371.234C142.011 371.586 141.468 371.297 141.468 370.593V369.159C141.491 368.776 141.611 368.403 141.819 368.071C142.026 367.739 142.315 367.457 142.663 367.248Z" fill="#E0E0E0"/>
<path d="M180.423 353.465C180.208 353.468 179.997 353.415 179.812 353.315C179.59 353.194 179.41 353.018 179.292 352.806C179.174 352.595 179.124 352.357 179.146 352.12V346.7C179.167 346.216 179.315 345.744 179.578 345.326C179.84 344.907 180.21 344.554 180.653 344.298L185.718 341.594C185.93 341.461 186.176 341.383 186.432 341.368C186.687 341.352 186.942 341.4 187.171 341.506C187.392 341.642 187.57 341.83 187.684 342.052C187.799 342.273 187.847 342.519 187.823 342.764V348.184C187.805 348.667 187.659 349.138 187.399 349.557C187.138 349.976 186.771 350.329 186.329 350.586L181.264 353.289C181.005 353.414 180.715 353.475 180.423 353.465ZM186.546 342.487C186.469 342.505 186.396 342.535 186.329 342.575L181.264 345.279C181.008 345.437 180.794 345.647 180.639 345.893C180.484 346.14 180.391 346.416 180.368 346.7V352.12C180.344 352.194 180.344 352.272 180.368 352.346C180.45 352.33 180.529 352.3 180.599 352.258L185.718 349.555C185.973 349.396 186.184 349.185 186.337 348.939C186.49 348.693 186.58 348.417 186.601 348.133V342.714C186.611 342.635 186.591 342.555 186.546 342.487Z" fill="#455A64"/>
<path d="M192.127 340.802L212.086 330.125C212.752 329.786 213.281 330.063 213.281 330.767V332.2C213.26 332.584 213.14 332.957 212.932 333.289C212.725 333.622 212.435 333.904 212.086 334.112L192.127 344.788C191.462 345.14 190.932 344.851 190.932 344.147V342.713C190.961 342.332 191.084 341.961 191.291 341.63C191.498 341.299 191.784 341.015 192.127 340.802Z" fill="#E0E0E0"/>
<path d="M229.874 327.019C229.66 327.02 229.449 326.968 229.263 326.868C229.044 326.746 228.867 326.569 228.751 326.358C228.636 326.147 228.588 325.909 228.611 325.674V320.254C228.629 319.771 228.775 319.299 229.035 318.881C229.296 318.462 229.663 318.109 230.105 317.852L235.17 315.148C235.377 315.011 235.622 314.931 235.876 314.916C236.13 314.902 236.384 314.954 236.608 315.067C236.831 315.18 237.016 315.349 237.141 315.554C237.266 315.76 237.327 315.994 237.315 316.23V321.65C237.294 322.133 237.146 322.605 236.883 323.024C236.621 323.443 236.251 323.795 235.808 324.051L230.743 326.755C230.486 326.916 230.185 327.008 229.874 327.019ZM230.716 318.833C230.464 318.993 230.253 319.205 230.101 319.45C229.948 319.696 229.857 319.971 229.833 320.254V325.674C229.809 325.748 229.809 325.826 229.833 325.9C229.911 325.882 229.984 325.853 230.051 325.812L235.115 323.108C235.371 322.95 235.585 322.74 235.741 322.494C235.896 322.248 235.989 321.972 236.011 321.687V316.23C236.036 316.156 236.036 316.077 236.011 316.003C235.931 316.02 235.854 316.045 235.781 316.079L230.716 318.833Z" fill="#455A64"/>
<path d="M241.591 314.356L261.551 303.679C262.203 303.34 262.746 303.679 262.746 304.321V305.754C262.717 306.136 262.594 306.507 262.387 306.838C262.18 307.169 261.894 307.452 261.551 307.666L241.591 318.342C240.926 318.694 240.396 318.405 240.396 317.701V316.23C240.424 315.853 240.547 315.487 240.754 315.162C240.962 314.836 241.248 314.561 241.591 314.356Z" fill="#E0E0E0"/>
<path d="M142.717 340.789V342.915C142.717 344.059 143.586 344.524 144.659 343.958L261.429 281.559C261.996 281.219 262.468 280.759 262.805 280.217C263.143 279.675 263.337 279.066 263.37 278.441V276.315C263.37 275.171 262.501 274.693 261.429 275.272L144.659 337.671C144.094 338.014 143.625 338.475 143.288 339.016C142.95 339.558 142.755 340.165 142.717 340.789Z" fill="#E0E0E0"/>
<path d="M142.717 353.591V355.716C142.717 356.861 143.586 357.326 144.659 356.747L261.429 294.361C261.994 294.019 262.465 293.559 262.803 293.017C263.14 292.475 263.334 291.867 263.37 291.242V289.117C263.37 287.96 262.501 287.495 261.429 288.073L144.659 350.472C144.093 350.814 143.622 351.274 143.285 351.816C142.947 352.358 142.753 352.966 142.717 353.591Z" fill="#E0E0E0"/>
<path d="M129.927 354.686C132.982 351.881 133.742 350.687 133.742 349.655C133.742 348.624 133.294 348.058 131.923 348.8C131.33 349.12 130.819 349.555 130.428 350.077C130.036 350.598 129.772 351.193 129.655 351.818L126.315 352.497C126.608 350.879 127.269 349.337 128.254 347.973C129.24 346.609 130.527 345.455 132.031 344.588C135.371 342.802 137.313 344.135 137.313 347.103C137.126 349.992 135.769 352.709 133.511 354.711V357.163L129.927 359.074V354.686Z" fill="#455A64"/>
<path d="M129.886 362.834C129.88 362.227 130.044 361.63 130.363 361.101C130.682 360.571 131.145 360.128 131.706 359.815C132.9 359.187 133.511 359.753 133.511 360.897C133.519 361.504 133.357 362.102 133.04 362.633C132.724 363.164 132.264 363.61 131.706 363.928C130.497 364.569 129.886 364.016 129.886 362.834Z" fill="#455A64"/>
<path d="M230.675 320.203L232.155 321.247L230.797 323.637C230.678 323.781 230.614 323.958 230.614 324.14C230.614 324.321 230.678 324.498 230.797 324.643C231.042 324.819 231.422 324.643 231.639 324.265L232.997 321.876L234.49 322.92C234.708 323.071 235.02 322.92 235.21 322.605C235.312 322.481 235.368 322.328 235.368 322.172C235.368 322.015 235.312 321.862 235.21 321.738L233.716 320.694L235.074 318.305C235.177 318.151 235.226 317.972 235.214 317.792C235.202 317.611 235.129 317.439 235.006 317.299C234.762 317.123 234.382 317.299 234.164 317.676L232.807 320.065L231.313 319.009C231.096 318.858 230.77 319.009 230.593 319.336C230.502 319.469 230.461 319.626 230.476 319.782C230.49 319.939 230.56 320.087 230.675 320.203Z" fill="#4066AF"/>
<path d="M130.959 427.673C130.744 427.673 130.533 427.621 130.348 427.522C130.129 427.4 129.951 427.223 129.836 427.011C129.721 426.8 129.672 426.563 129.696 426.327V420.907C129.714 420.424 129.86 419.953 130.12 419.534C130.38 419.115 130.748 418.762 131.19 418.505L136.254 415.789C136.469 415.662 136.715 415.588 136.97 415.574C137.224 415.561 137.478 415.609 137.707 415.713C137.93 415.847 138.11 416.035 138.225 416.257C138.34 416.479 138.386 416.726 138.359 416.971V422.391C138.337 422.873 138.19 423.343 137.93 423.762C137.67 424.18 137.305 424.534 136.865 424.793L131.801 427.497C131.541 427.622 131.251 427.682 130.959 427.673ZM137.096 416.694C137.015 416.707 136.937 416.732 136.865 416.77L131.801 419.486C131.546 419.645 131.334 419.855 131.181 420.102C131.028 420.348 130.938 420.624 130.918 420.907V426.327C130.897 426.401 130.897 426.479 130.918 426.553C130.999 426.533 131.076 426.503 131.149 426.465L136.213 423.762C136.468 423.603 136.68 423.392 136.833 423.146C136.986 422.9 137.076 422.624 137.096 422.341V416.921C137.111 416.846 137.111 416.769 137.096 416.694Z" fill="#455A64"/>
<path d="M142.663 415.009L162.622 404.333C163.288 403.981 163.817 404.27 163.817 404.974V406.408C163.796 406.791 163.676 407.164 163.468 407.497C163.26 407.829 162.971 408.111 162.622 408.319L142.663 418.996C142.011 419.348 141.468 418.996 141.468 418.354V416.921C141.491 416.537 141.611 416.165 141.819 415.832C142.026 415.5 142.315 415.218 142.663 415.009Z" fill="#E0E0E0"/>
<path d="M180.423 401.227C180.208 401.229 179.997 401.176 179.812 401.076C179.579 400.951 179.391 400.764 179.273 400.541C179.154 400.317 179.11 400.065 179.147 399.818V394.398C179.167 393.914 179.315 393.442 179.578 393.024C179.841 392.605 180.21 392.252 180.654 391.996L185.718 389.28C185.929 389.151 186.175 389.078 186.428 389.071C186.681 389.064 186.931 389.123 187.15 389.241C187.369 389.359 187.548 389.531 187.667 389.737C187.786 389.944 187.84 390.178 187.823 390.412V395.832C187.805 396.315 187.659 396.786 187.399 397.205C187.139 397.624 186.771 397.977 186.329 398.234L181.265 400.937C181.017 401.102 180.726 401.202 180.423 401.227ZM186.547 390.248C186.471 390.264 186.398 390.29 186.329 390.324L181.265 393.04C181.008 393.198 180.795 393.408 180.639 393.654C180.484 393.901 180.391 394.177 180.369 394.461V399.881C180.344 399.955 180.344 400.034 180.369 400.107C180.448 400.084 180.525 400.055 180.599 400.019L185.664 397.316C185.918 397.157 186.13 396.946 186.283 396.7C186.436 396.454 186.526 396.178 186.547 395.895V390.424C186.563 390.367 186.563 390.306 186.547 390.248Z" fill="#455A64"/>
<path d="M192.127 388.563L212.086 377.886C212.752 377.534 213.281 377.886 213.281 378.528V379.961C213.26 380.345 213.14 380.718 212.932 381.05C212.725 381.383 212.435 381.664 212.086 381.873L192.127 392.549C191.462 392.901 190.932 392.612 190.932 391.908V390.424C190.969 390.051 191.096 389.69 191.302 389.368C191.509 389.046 191.791 388.771 192.127 388.563Z" fill="#E0E0E0"/>
<path d="M229.874 374.78C229.66 374.781 229.449 374.729 229.263 374.63C229.044 374.507 228.867 374.331 228.751 374.119C228.636 373.908 228.588 373.671 228.611 373.435V368.015C228.629 367.532 228.775 367.06 229.035 366.642C229.296 366.223 229.663 365.87 230.105 365.613L235.17 362.897C235.387 362.769 235.635 362.696 235.892 362.682C236.149 362.669 236.405 362.717 236.636 362.821C236.857 362.957 237.035 363.145 237.149 363.367C237.264 363.588 237.312 363.834 237.288 364.079V369.499C237.265 369.982 237.116 370.453 236.853 370.871C236.591 371.29 236.223 371.643 235.781 371.901L230.716 374.604C230.457 374.73 230.167 374.791 229.874 374.78ZM230.716 366.594C230.464 366.755 230.253 366.966 230.101 367.212C229.948 367.457 229.857 367.732 229.833 368.015V373.435C229.809 373.509 229.809 373.587 229.833 373.661C229.908 373.636 229.98 373.607 230.051 373.573L235.115 370.869C235.371 370.711 235.585 370.501 235.741 370.255C235.896 370.009 235.989 369.733 236.011 369.448V364.016C236.038 363.942 236.038 363.863 236.011 363.79C235.931 363.806 235.854 363.832 235.781 363.865L230.716 366.594Z" fill="#455A64"/>
<path d="M241.591 362.117L261.551 351.441C262.203 351.088 262.746 351.378 262.746 352.082V353.516C262.717 353.897 262.594 354.268 262.387 354.599C262.18 354.93 261.894 355.214 261.551 355.427L241.591 366.103C240.926 366.456 240.396 366.103 240.396 365.462V364.016C240.42 363.635 240.541 363.264 240.749 362.934C240.956 362.604 241.245 362.324 241.591 362.117Z" fill="#E0E0E0"/>
<path d="M142.717 388.55V390.676C142.717 391.82 143.586 392.285 144.659 391.707L261.429 329.32C261.994 328.979 262.465 328.518 262.803 327.976C263.14 327.434 263.334 326.826 263.37 326.202V324.076C263.37 322.92 262.501 322.454 261.429 323.033L144.659 385.432C144.093 385.773 143.622 386.234 143.285 386.776C142.947 387.318 142.753 387.926 142.717 388.55Z" fill="#E0E0E0"/>
<path d="M142.717 401.352V403.477C142.717 404.622 143.586 405.087 144.659 404.509L261.429 342.122C261.993 341.779 262.463 341.318 262.8 340.777C263.137 340.235 263.332 339.628 263.37 339.003V336.878C263.37 335.721 262.501 335.256 261.429 335.834L144.659 398.233C144.093 398.575 143.622 399.036 143.285 399.578C142.947 400.119 142.753 400.727 142.717 401.352Z" fill="#E0E0E0"/>
<path d="M129.927 402.446C132.982 399.642 133.742 398.447 133.742 397.416C133.742 396.385 133.294 395.819 131.923 396.561C131.331 396.879 130.822 397.312 130.43 397.831C130.039 398.351 129.774 398.943 129.655 399.566L126.315 400.258C126.608 398.639 127.269 397.097 128.254 395.733C129.24 394.369 130.527 393.215 132.031 392.348C135.371 390.562 137.313 391.895 137.313 394.926C137.126 397.815 135.769 400.532 133.511 402.534V404.986L129.927 406.898V402.446Z" fill="#455A64"/>
<path d="M129.886 410.545C129.88 409.939 130.044 409.342 130.363 408.812C130.682 408.283 131.145 407.84 131.706 407.527C132.9 406.898 133.511 407.452 133.511 408.609C133.521 409.214 133.359 409.811 133.042 410.34C132.725 410.87 132.265 411.313 131.706 411.627C130.497 412.331 129.886 411.803 129.886 410.545Z" fill="#455A64"/>
<path d="M230.675 368.166L232.155 369.21L230.797 371.599C230.678 371.744 230.614 371.92 230.614 372.102C230.614 372.284 230.678 372.46 230.797 372.605C231.042 372.781 231.422 372.605 231.639 372.228L232.997 369.838L234.49 370.895C234.708 371.046 235.02 370.895 235.21 370.568C235.312 370.443 235.368 370.291 235.368 370.134C235.368 369.977 235.312 369.825 235.21 369.7L233.716 368.656L235.074 366.267C235.177 366.114 235.226 365.934 235.214 365.754C235.202 365.574 235.129 365.401 235.006 365.261C234.762 365.085 234.382 365.261 234.164 365.638L232.807 368.028L231.313 366.971C231.096 366.833 230.77 366.971 230.593 367.298C230.502 367.431 230.461 367.588 230.476 367.745C230.49 367.902 230.56 368.05 230.675 368.166Z" fill="#4066AF"/>
<path d="M362.953 164.646L352.973 159.314L352.878 159.251C347.908 156.648 341.106 157.038 333.57 161.074C326.51 164.847 320.074 171.135 315.226 178.391C309.619 186.766 306.102 196.449 306.102 205.138C306.102 213.249 309.157 218.971 314.113 221.6L324.256 226.969C329.252 229.924 336.326 229.66 344.161 225.473C359.341 217.349 371.643 197.618 371.643 181.396C371.629 172.983 368.289 167.161 362.953 164.646Z" fill="#4066AF"/>
<path opacity="0.1" d="M324.037 226.944L314.098 221.675C309.142 219.009 306.087 213.313 306.087 205.214C306.087 196.525 309.604 186.842 315.211 178.466L325.816 184.138C320.208 192.5 316.691 202.183 316.691 210.86C316.664 218.557 319.461 224.102 324.037 226.944Z" fill="black"/>
<path opacity="0.4" d="M362.747 164.545C357.859 162.345 351.328 162.898 344.146 166.733C336.963 170.569 330.649 176.794 325.788 184.087L315.184 178.416C320.031 171.135 326.481 164.86 333.528 161.1C341.064 157.063 347.866 156.686 352.836 159.276L352.931 159.339L362.747 164.545Z" fill="white"/>
<path d="M338.077 188.539C338.096 189.519 337.871 190.489 337.419 191.375C336.966 192.26 336.299 193.037 335.47 193.645C334.031 194.412 332.863 193.381 332.863 191.331C332.844 190.352 333.069 189.381 333.521 188.496C333.974 187.61 334.64 186.833 335.47 186.225C336.909 185.446 338.077 186.49 338.077 188.539Z" fill="#455A64"/>
<path d="M352.917 180.604C352.936 181.584 352.711 182.554 352.259 183.439C351.807 184.325 351.14 185.102 350.31 185.71C348.871 186.477 347.703 185.446 347.703 183.396C347.684 182.416 347.909 181.446 348.362 180.56C348.814 179.675 349.481 178.898 350.31 178.29C351.75 177.523 352.917 178.554 352.917 180.604Z" fill="#455A64"/>
<path d="M329.21 219.198C329.106 219.21 329.002 219.21 328.898 219.198C328.705 219.162 328.523 219.091 328.36 218.989C328.198 218.887 328.059 218.757 327.951 218.604C327.844 218.452 327.77 218.282 327.735 218.103C327.699 217.924 327.702 217.741 327.744 217.563C330.106 207.163 336.121 198.059 343.06 194.349C344.472 193.481 346.085 192.93 347.768 192.743C349.452 192.555 351.159 192.735 352.754 193.268C356.026 194.525 358.552 197.556 359.855 201.857C359.921 202.199 359.847 202.551 359.647 202.845C359.447 203.139 359.136 203.354 358.774 203.447C358.412 203.539 358.026 203.504 357.691 203.347C357.357 203.19 357.097 202.923 356.963 202.599C355.931 199.153 354.031 196.751 351.627 195.833C350.454 195.477 349.209 195.375 347.986 195.536C346.764 195.698 345.599 196.118 344.58 196.764C338.443 200.046 332.863 208.635 330.704 218.142C330.621 218.448 330.428 218.72 330.156 218.912C329.885 219.104 329.551 219.205 329.21 219.198Z" fill="#455A64"/>
<path d="M362.951 84.1887L352.971 78.8567H352.876C347.907 76.2536 341.104 76.6435 333.569 80.6802C326.508 84.4528 320.072 90.7405 315.225 97.9965C309.617 106.372 306.101 116.055 306.101 124.744C306.101 132.855 309.156 138.577 314.112 141.205L324.254 146.575C329.251 149.53 336.325 149.266 344.159 145.079C359.34 136.955 371.641 117.224 371.641 101.065C371.627 92.5262 368.287 86.7038 362.951 84.1887Z" fill="#4066AF"/>
<path opacity="0.1" d="M324.037 146.461L314.098 141.192C309.142 138.526 306.087 132.83 306.087 124.731C306.087 116.042 309.604 106.359 315.211 97.9834L325.816 103.655C320.208 112.018 316.691 121.701 316.691 130.378C316.664 138.099 319.461 143.645 324.037 146.461Z" fill="black"/>
<path opacity="0.4" d="M362.747 84.0878C357.859 81.8871 351.328 82.4404 344.146 86.2759C336.963 90.1114 330.649 96.3362 325.788 103.63L315.184 97.9584C320.031 90.6773 326.481 84.4021 333.528 80.6421C341.064 76.6054 347.866 76.2281 352.836 78.8187H352.931L362.747 84.0878Z" fill="white"/>
<path d="M337.914 134.754C336.624 134.757 335.347 134.527 334.153 134.075C330.609 132.729 327.893 129.447 326.495 124.807C326.4 124.431 326.466 124.036 326.678 123.705C326.89 123.373 327.233 123.13 327.634 123.026C328.035 122.922 328.463 122.966 328.83 123.148C329.198 123.329 329.475 123.636 329.604 124.002C330.731 127.775 332.781 130.29 335.375 131.308C336.643 131.7 337.992 131.815 339.316 131.642C340.64 131.47 341.903 131.015 343.006 130.315C349.618 126.781 355.647 117.501 357.941 107.239C358.033 106.852 358.285 106.514 358.643 106.297C359.001 106.081 359.437 106.004 359.856 106.082C360.064 106.123 360.261 106.2 360.436 106.311C360.611 106.422 360.761 106.564 360.877 106.729C360.993 106.894 361.073 107.078 361.112 107.271C361.151 107.464 361.149 107.663 361.105 107.855C358.552 119.073 352.062 128.906 344.581 132.918C342.568 134.056 340.271 134.688 337.914 134.754Z" fill="#455A64"/>
<path d="M337.615 109.855C337.635 110.913 337.391 111.961 336.904 112.918C336.417 113.875 335.698 114.716 334.804 115.375C333.243 116.205 331.994 115.086 331.994 112.86C331.971 111.803 332.213 110.756 332.7 109.8C333.188 108.845 333.908 108.007 334.804 107.352C336.352 106.522 337.615 107.641 337.615 109.855Z" fill="#455A64"/>
<path d="M353.637 101.29C353.657 102.347 353.413 103.393 352.926 104.348C352.439 105.303 351.72 106.142 350.826 106.798C349.279 107.628 348.016 106.509 348.016 104.283C347.996 103.227 348.239 102.181 348.727 101.225C349.214 100.27 349.933 99.4318 350.826 98.7753C352.374 97.9453 353.637 99.0771 353.637 101.29Z" fill="#455A64"/>
<path d="M383.372 310.646L311.409 349.127C310.686 349.468 309.885 349.646 309.074 349.646C308.262 349.646 307.462 349.468 306.738 349.127L302.923 347.077C302.239 346.664 301.671 346.107 301.265 345.451C300.859 344.795 300.627 344.059 300.587 343.304V266.343C300.627 265.588 300.859 264.852 301.265 264.196C301.671 263.541 302.239 262.983 302.923 262.57L374.886 224.09C375.607 223.749 376.405 223.571 377.214 223.571C378.024 223.571 378.822 223.749 379.543 224.09L383.358 226.152C384.043 226.563 384.613 227.12 385.019 227.777C385.425 228.433 385.656 229.169 385.694 229.925V306.899C385.652 307.648 385.42 308.378 385.016 309.029C384.613 309.68 384.049 310.234 383.372 310.646Z" fill="#455A64"/>
<path d="M311.015 349.29C310.331 349.545 309.595 349.662 308.858 349.633C308.121 349.605 307.398 349.433 306.738 349.126L302.923 347.064C302.239 346.652 301.672 346.095 301.268 345.438C300.864 344.782 300.636 344.046 300.601 343.291V266.33C300.621 265.575 300.855 264.838 301.28 264.192L309.753 268.757C309.334 269.4 309.101 270.132 309.074 270.882V347.844C309.074 349.114 309.902 349.692 311.015 349.29Z" fill="#263238"/>
<path d="M383.371 310.647L311.409 349.127C310.119 349.819 309.073 349.265 309.073 347.87V270.959C309.113 270.204 309.345 269.468 309.751 268.812C310.157 268.156 310.725 267.599 311.409 267.186L383.371 228.705C384.661 228.014 385.707 228.58 385.707 229.963V306.937C385.657 307.681 385.42 308.404 385.014 309.048C384.609 309.692 384.046 310.24 383.371 310.647Z" fill="#37474F"/>
<path fill-rule="evenodd" clip-rule="evenodd" d="M345.421 291.469L325.869 317.122C334.505 325.208 351.124 319.134 362.991 303.554C370.119 294.21 373.948 284.125 373.948 274.706L350.282 287.306C348.404 288.411 346.757 289.821 345.421 291.469Z" fill="#4066AF"/>
<path opacity="0.3" fill-rule="evenodd" clip-rule="evenodd" d="M345.421 291.469L325.869 317.122C334.505 325.208 351.124 319.134 362.991 303.554C370.119 294.21 373.948 284.125 373.948 274.706L350.282 287.306C348.404 288.411 346.757 289.821 345.421 291.469Z" fill="black"/>
<path d="M324.878 316.469L344.43 290.815C345.867 289.049 347.644 287.544 349.671 286.376L373.337 273.725C373.523 273.626 373.734 273.573 373.949 273.573C374.163 273.573 374.374 273.626 374.56 273.725C374.746 273.824 374.9 273.967 375.007 274.14C375.114 274.312 375.171 274.507 375.17 274.706C375.17 284.414 371.301 294.625 363.996 304.208C356.134 314.519 346.032 321.084 336.976 321.813C334.795 322.047 332.584 321.821 330.511 321.153C328.437 320.484 326.553 319.39 325 317.952C324.813 317.776 324.692 317.548 324.658 317.303C324.624 317.058 324.677 316.809 324.81 316.594C324.818 316.547 324.841 316.503 324.878 316.469ZM372.672 276.693L350.947 288.337C349.221 289.335 347.703 290.613 346.467 292.11L327.526 316.946C328.812 317.922 330.297 318.648 331.893 319.08C333.488 319.512 335.162 319.642 336.813 319.462C345.041 318.833 354.709 312.47 362.027 302.849C363.276 301.227 364.403 299.58 365.435 297.932C369.616 291.478 372.095 284.201 372.672 276.693Z" fill="white"/>
<path fill-rule="evenodd" clip-rule="evenodd" d="M346.304 285.96L339.148 266.28C325.19 278.591 317.546 298.712 322.081 311.212C322.81 313.433 324.105 315.46 325.856 317.122L345.408 291.468C345.962 290.658 346.328 289.75 346.482 288.802C346.637 287.853 346.576 286.886 346.304 285.96Z" fill="#4066AF"/>
<path d="M338.32 265.463C338.467 265.33 338.647 265.234 338.844 265.184C339.041 265.133 339.248 265.13 339.447 265.174C339.647 265.222 339.83 265.315 339.981 265.445C340.133 265.574 340.248 265.736 340.316 265.916L347.458 285.596C347.79 286.69 347.869 287.837 347.691 288.961C347.513 290.085 347.082 291.163 346.426 292.123L326.929 317.777C326.823 317.908 326.688 318.017 326.534 318.097C326.38 318.178 326.209 318.227 326.032 318.242C325.853 318.259 325.673 318.239 325.503 318.182C325.334 318.125 325.181 318.034 325.055 317.915C323.179 316.147 321.783 313.992 320.981 311.627C317.682 302.535 320.615 289.532 327.648 278.252C330.527 273.538 334.121 269.231 338.32 265.463ZM344.431 290.815C344.871 290.148 345.161 289.405 345.283 288.631C345.404 287.857 345.354 287.069 345.137 286.313L338.619 268.355C325.883 280.453 319.013 299.165 323.249 310.86C323.791 312.468 324.642 313.972 325.761 315.299L344.431 290.815Z" fill="white"/>
<path fill-rule="evenodd" clip-rule="evenodd" d="M349.318 286.363L368.871 260.709C361.973 254.246 350.323 256.421 339.162 266.28L346.304 285.961C346.888 287.596 348.246 287.772 349.318 286.363Z" fill="#4066AF"/>
<path opacity="0.1" fill-rule="evenodd" clip-rule="evenodd" d="M349.318 286.363L368.871 260.709C361.973 254.246 350.323 256.421 339.162 266.28L346.304 285.961C346.888 287.596 348.246 287.772 349.318 286.363Z" fill="black"/>
<path d="M338.32 265.463C349.997 255.151 362.34 252.976 369.74 259.917C369.942 260.105 370.066 260.353 370.091 260.617C370.116 260.882 370.039 261.146 369.875 261.363L350.31 287.017C350.068 287.518 349.657 287.932 349.138 288.196C348.619 288.46 348.021 288.56 347.435 288.48C346.849 288.401 346.307 288.146 345.892 287.754C345.477 287.363 345.212 286.857 345.136 286.313L337.994 266.632C337.941 266.481 337.923 266.321 337.942 266.163C337.96 266.004 338.015 265.852 338.103 265.714C338.156 265.618 338.23 265.532 338.32 265.463ZM367.255 260.898C360.914 255.868 350.622 258.018 340.561 266.632L347.458 285.621C347.533 285.833 347.643 286.032 347.784 286.212C348.005 286.101 348.188 285.936 348.314 285.734L367.255 260.898Z" fill="white"/>
<path fill-rule="evenodd" clip-rule="evenodd" d="M350.282 287.306L373.948 274.731C373.948 268.443 372.319 263.979 368.87 260.734L349.318 286.388C348.245 287.771 348.653 288.212 350.282 287.306Z" fill="#4066AF"/>
<path opacity="0.2" fill-rule="evenodd" clip-rule="evenodd" d="M350.282 287.306L373.948 274.731C373.948 268.443 372.319 263.979 368.87 260.734L349.318 286.388C348.245 287.771 348.653 288.212 350.282 287.306Z" fill="black"/>
<path d="M348.314 285.709L367.88 260.056C367.983 259.922 368.117 259.811 368.272 259.73C368.427 259.65 368.599 259.602 368.776 259.59C368.953 259.574 369.131 259.595 369.298 259.652C369.465 259.708 369.616 259.799 369.74 259.917C373.447 263.388 375.171 268.091 375.171 274.706C375.171 274.905 375.115 275.1 375.007 275.272C374.9 275.444 374.746 275.587 374.56 275.687L350.907 288.338C350.391 288.614 348.843 289.444 347.893 288.476C347.628 288.152 347.484 287.757 347.484 287.35C347.484 286.944 347.628 286.549 347.893 286.225L348.314 285.709ZM369.02 262.533L351.627 285.357L372.754 274.039C372.618 269.047 371.423 265.337 369.02 262.533Z" fill="white"/>
<path d="M534.331 194.877C533.075 194.316 531.695 194.036 530.301 194.06C528.907 194.084 527.539 194.411 526.306 195.015L402.557 261.187C401.364 261.92 400.374 262.904 399.666 264.057C398.959 265.21 398.554 266.502 398.484 267.827V300.523C398.43 301.83 398.763 303.127 399.446 304.273C400.129 305.419 401.137 306.37 402.36 307.025C403.584 307.679 404.977 308.012 406.39 307.988C407.803 307.963 409.182 307.582 410.378 306.886L534.127 240.714C535.321 239.98 536.311 238.997 537.019 237.844C537.726 236.691 538.131 235.399 538.201 234.074V201.378C538.151 200.09 537.775 198.83 537.103 197.7C536.431 196.571 535.481 195.604 534.331 194.877Z" fill="#263238"/>
<path d="M538.16 200.687C537.82 198.75 536.123 198.071 534.087 199.178L482.491 226.756L410.338 265.337C409.113 266.041 408.103 267.024 407.405 268.191L399.638 264.042C400.335 262.874 401.34 261.888 402.557 261.174L526.306 195.015C527.446 194.346 528.755 193.965 530.103 193.909C531.451 193.854 532.792 194.127 533.99 194.701C535.189 195.274 536.205 196.129 536.937 197.179C537.668 198.229 538.09 199.439 538.16 200.687Z" fill="#455A64"/>
<path d="M406.183 271.977V304.672C406.183 307.112 408.043 308.106 410.324 306.886L534.073 240.714C535.267 239.98 536.257 238.997 536.965 237.844C537.672 236.691 538.077 235.399 538.147 234.074V201.378C538.147 198.939 536.3 197.945 534.073 199.165L482.477 226.755L410.311 265.337C409.108 266.066 408.108 267.046 407.391 268.2C406.674 269.354 406.26 270.647 406.183 271.977Z" fill="#37474F"/>
<path d="M427.228 267.185L429.251 271.159C429.275 271.216 429.311 271.268 429.357 271.311C429.404 271.355 429.459 271.389 429.521 271.411C429.582 271.434 429.648 271.444 429.713 271.442C429.779 271.439 429.844 271.424 429.903 271.398L434.425 269.801C435.144 269.537 435.429 270.48 434.913 271.385L431.641 277.069C431.444 277.399 431.354 277.775 431.383 278.151L432.157 283.307C432.279 284.124 431.533 285.193 430.894 285.117L426.821 284.652C426.657 284.659 426.497 284.703 426.355 284.78C426.214 284.856 426.094 284.963 426.006 285.092L421.933 289.883C421.295 290.638 420.575 290.361 420.67 289.418L421.444 283.445C421.478 283.3 421.472 283.149 421.427 283.006C421.382 282.863 421.299 282.733 421.186 282.627L417.914 280.439C417.398 280.087 417.683 278.842 418.403 278.339L422.924 275.107C423.241 274.862 423.468 274.533 423.576 274.164L425.599 268.027C426.047 267.059 426.903 266.569 427.228 267.185Z" fill="#4066AF"/>
<path d="M450.107 255.063L452.13 259.036C452.152 259.095 452.187 259.148 452.233 259.193C452.279 259.237 452.335 259.272 452.397 259.295C452.459 259.317 452.525 259.327 452.592 259.324C452.658 259.321 452.723 259.304 452.782 259.275L457.303 257.678C458.023 257.414 458.308 258.357 457.792 259.263L454.561 264.947C454.362 265.281 454.273 265.661 454.303 266.041L455.077 271.184C455.199 272.002 454.452 273.071 453.814 272.995L449.74 272.542C449.577 272.544 449.416 272.584 449.273 272.658C449.131 272.733 449.011 272.84 448.926 272.97L444.852 277.761C444.214 278.516 443.495 278.252 443.59 277.296L444.364 271.323C444.398 271.177 444.392 271.026 444.347 270.884C444.302 270.741 444.219 270.611 444.106 270.505L440.833 268.317C440.317 267.965 440.603 266.733 441.322 266.217L445.844 262.985C446.16 262.74 446.388 262.411 446.495 262.042L448.518 255.905C448.858 254.924 449.781 254.434 450.107 255.063Z" fill="#4066AF"/>
<path d="M472.986 242.94L475.009 246.913C475.032 246.97 475.068 247.022 475.115 247.066C475.161 247.109 475.217 247.143 475.278 247.166C475.339 247.188 475.405 247.199 475.471 247.196C475.537 247.194 475.601 247.179 475.661 247.152L480.182 245.543C480.902 245.291 481.187 246.222 480.671 247.127L477.399 252.811C477.202 253.146 477.112 253.525 477.141 253.905L477.915 259.049C478.037 259.866 477.29 260.948 476.652 260.872L472.578 260.407C472.414 260.414 472.255 260.458 472.113 260.534C471.971 260.611 471.851 260.718 471.764 260.847L467.69 265.626C467.052 266.393 466.333 266.116 466.428 265.173L467.202 259.2C467.235 259.052 467.229 258.899 467.185 258.755C467.14 258.61 467.057 258.478 466.944 258.37L463.671 256.181C463.155 255.842 463.44 254.597 464.16 254.081L468.682 250.85C468.998 250.605 469.226 250.275 469.333 249.906L471.356 243.77C471.737 242.801 472.66 242.298 472.986 242.94Z" fill="#4066AF"/>
<path d="M495.865 230.805L497.888 234.779C497.911 234.836 497.947 234.888 497.994 234.931C498.04 234.974 498.096 235.009 498.157 235.031C498.218 235.053 498.284 235.064 498.35 235.062C498.416 235.059 498.48 235.044 498.539 235.018L503.061 233.408C503.781 233.156 504.066 234.087 503.55 234.992L500.277 240.677C500.081 241.011 499.991 241.391 500.019 241.771L500.793 246.914C500.916 247.731 500.169 248.813 499.531 248.737L495.457 248.272C495.293 248.279 495.133 248.323 494.992 248.4C494.85 248.476 494.73 248.583 494.643 248.712L490.569 253.491C489.931 254.258 489.211 253.981 489.306 253.038L490.08 247.065C490.114 246.919 490.109 246.769 490.063 246.626C490.018 246.483 489.936 246.353 489.822 246.247L486.55 244.059C486.034 243.707 486.319 242.462 487.039 241.947L491.56 238.727C491.871 238.478 492.098 238.15 492.212 237.784L494.235 231.647C494.615 230.717 495.539 230.176 495.865 230.805Z" fill="#4066AF"/>
<path d="M518.743 218.67L520.766 222.643C520.79 222.7 520.826 222.752 520.872 222.796C520.918 222.839 520.974 222.873 521.035 222.896C521.096 222.918 521.162 222.929 521.228 222.926C521.294 222.924 521.358 222.909 521.418 222.882L525.939 221.285C526.659 221.021 526.944 221.964 526.428 222.87L523.156 228.554C522.959 228.884 522.869 229.259 522.898 229.635L523.672 234.791C523.794 235.609 523.047 236.677 522.409 236.602L518.336 236.137C518.172 236.144 518.012 236.188 517.87 236.264C517.728 236.341 517.608 236.448 517.521 236.577L513.448 241.368C512.809 242.123 512.09 241.846 512.185 240.903L512.959 234.93C512.993 234.784 512.987 234.633 512.942 234.49C512.897 234.348 512.814 234.218 512.701 234.112L509.483 231.974C508.967 231.622 509.252 230.377 509.972 229.874L514.493 226.642C514.81 226.397 515.037 226.068 515.145 225.699L517.168 219.562C517.494 218.531 518.376 218.041 518.743 218.67Z" fill="#4066AF"/>
<path d="M423.82 246.273L417.032 242.651C416.897 242.596 416.783 242.503 416.706 242.387L415.457 240.375L419.53 238.225L419.408 238.552L423.82 246.273Z" fill="#4066AF"/>
<path opacity="0.2" d="M423.82 246.273L417.032 242.651C416.897 242.596 416.783 242.503 416.706 242.387L415.457 240.375L419.53 238.225L419.408 238.552L423.82 246.273Z" fill="black"/>
<path d="M418.892 238.526L423.59 246.071C423.655 246.18 423.754 246.269 423.873 246.327C423.992 246.385 424.127 246.409 424.261 246.397C424.395 246.385 424.522 246.337 424.627 246.259C424.732 246.181 424.81 246.077 424.852 245.958L429.808 232.716L418.892 238.526Z" fill="#4066AF"/>
<path d="M537.386 133.384C537.327 132.332 536.999 131.309 536.43 130.397C535.862 129.486 535.068 128.712 534.114 128.14C533.098 127.668 531.978 127.423 530.842 127.423C529.706 127.423 528.585 127.668 527.569 128.14L401.757 195.38C400.804 195.957 400.011 196.733 399.443 197.647C398.874 198.56 398.546 199.584 398.484 200.637V238.992C398.546 240.044 398.874 241.068 399.443 241.982C400.011 242.895 400.804 243.671 401.757 244.248C402.77 244.725 403.892 244.974 405.029 244.974C406.166 244.974 407.287 244.725 408.301 244.248L534.426 176.819C537.373 175.26 537.4 173.7 537.4 171.789L537.386 133.384Z" fill="#4066AF"/>
<path opacity="0.2" d="M398.43 238.979C398.491 240.032 398.82 241.056 399.388 241.969C399.957 242.882 400.749 243.659 401.702 244.236C402.623 244.67 403.633 244.918 404.665 244.964C405.698 245.01 406.729 244.851 407.69 244.5C406.156 245.041 404.974 244.223 404.974 242.488V204.12C405.012 203.066 405.344 202.039 405.938 201.14L399.38 197.631C398.797 198.539 398.47 199.569 398.43 200.624V238.979Z" fill="black"/>
<path opacity="0.4" d="M537.237 132.528C536.857 131.271 535.58 130.831 534.073 131.635L408.247 198.876C407.276 199.429 406.479 200.21 405.939 201.139L399.394 197.631C399.946 196.709 400.74 195.931 401.702 195.367L527.515 128.139C528.529 127.662 529.65 127.414 530.787 127.414C531.925 127.414 533.046 127.662 534.06 128.139C534.884 128.632 535.592 129.275 536.138 130.03C536.684 130.784 537.058 131.635 537.237 132.528Z" fill="white"/>
<path d="M413.827 204.799L526.809 144.262C527.909 143.683 528.805 143.947 528.805 144.865C528.724 145.431 528.501 145.971 528.154 146.442C527.808 146.914 527.347 147.304 526.809 147.581L413.827 208.082C412.741 208.673 411.845 208.409 411.845 207.491C411.93 206.931 412.154 206.398 412.497 205.931C412.841 205.464 413.296 205.077 413.827 204.799Z" fill="white"/>
<path d="M413.827 221.914L510.733 170.103C511.832 169.512 512.715 169.776 512.715 170.694C512.635 171.26 512.415 171.801 512.071 172.275C511.727 172.749 511.269 173.142 510.733 173.423L413.827 225.221C412.741 225.812 411.845 225.536 411.845 224.618C411.935 224.058 412.16 223.525 412.503 223.057C412.847 222.589 413.299 222.198 413.827 221.914Z" fill="white"/>
<path d="M413.827 230.239L524.501 170.984C525.587 170.393 526.483 170.67 526.483 171.588C526.394 172.149 526.17 172.685 525.827 173.156C525.484 173.626 525.03 174.018 524.501 174.304L413.827 233.546C412.741 234.137 411.845 233.873 411.845 232.955C411.926 232.392 412.148 231.853 412.492 231.382C412.836 230.911 413.293 230.519 413.827 230.239Z" fill="white"/>
<path d="M413.827 213.111L524.501 153.856C525.587 153.265 526.483 153.542 526.483 154.46C526.4 155.023 526.178 155.561 525.835 156.032C525.491 156.503 525.034 156.895 524.501 157.176L413.827 216.481C412.741 217.06 411.845 216.796 411.845 215.878C411.918 215.305 412.136 214.756 412.48 214.276C412.825 213.795 413.286 213.396 413.827 213.111Z" fill="white"/>
<path d="M534.331 67.4755C533.075 66.9145 531.695 66.6346 530.301 66.6587C528.907 66.6827 527.539 67.0099 526.306 67.6139L402.557 133.773C401.366 134.509 400.378 135.492 399.67 136.645C398.963 137.798 398.557 139.088 398.484 140.413V173.109C398.43 174.417 398.763 175.713 399.446 176.859C400.129 178.005 401.137 178.956 402.36 179.611C403.584 180.265 404.977 180.598 406.39 180.574C407.803 180.549 409.182 180.168 410.378 179.472L534.127 113.3C535.321 112.567 536.311 111.583 537.019 110.43C537.726 109.277 538.131 107.985 538.201 106.66V73.9644C538.149 72.6778 537.772 71.4203 537.1 70.2933C536.428 69.1662 535.479 68.2011 534.331 67.4755Z" fill="#263238"/>
<path d="M538.16 73.2854C537.82 71.3488 536.123 70.6697 534.087 71.7638L482.491 99.3416L410.338 137.923C409.115 138.635 408.107 139.621 407.405 140.79L399.638 136.64C400.332 135.47 401.336 134.483 402.557 133.773L526.306 67.6139C527.446 66.9445 528.755 66.5632 530.103 66.508C531.451 66.4527 532.792 66.7255 533.99 67.2992C535.189 67.8728 536.205 68.7273 536.937 69.7776C537.668 70.8278 538.09 72.0373 538.16 73.2854Z" fill="#455A64"/>
<path d="M406.183 144.576V177.272C406.183 179.711 408.043 180.705 410.324 179.485L534.073 113.313C535.267 112.58 536.257 111.596 536.965 110.443C537.672 109.29 538.077 107.998 538.147 106.673V73.9775C538.147 71.5379 536.3 70.5444 534.073 71.7642L482.477 99.342L410.311 137.936C409.108 138.665 408.108 139.646 407.391 140.799C406.674 141.953 406.26 143.246 406.183 144.576Z" fill="#37474F"/>
<path d="M427.228 139.796L429.251 143.77C429.275 143.827 429.311 143.879 429.357 143.923C429.404 143.966 429.459 144 429.521 144.023C429.582 144.045 429.648 144.055 429.713 144.053C429.779 144.051 429.844 144.036 429.903 144.009L434.425 142.4C435.144 142.148 435.429 143.091 434.913 143.984L431.641 149.668C431.444 150.003 431.355 150.382 431.383 150.762L432.157 155.906C432.279 156.723 431.533 157.804 430.894 157.729L426.821 157.264C426.657 157.271 426.497 157.314 426.355 157.391C426.214 157.468 426.094 157.575 426.006 157.704L421.933 162.482C421.295 163.25 420.575 162.973 420.67 162.03L421.444 156.056C421.478 155.911 421.472 155.76 421.427 155.617C421.382 155.475 421.299 155.345 421.186 155.239L417.914 153.051C417.398 152.699 417.683 151.454 418.403 150.938L422.924 147.719C423.238 147.471 423.464 147.143 423.576 146.776L425.599 140.639C426.047 139.658 426.903 139.168 427.228 139.796Z" fill="#4066AF"/>
<path d="M450.107 127.662L452.13 131.636C452.154 131.693 452.19 131.744 452.236 131.788C452.282 131.831 452.338 131.865 452.399 131.888C452.461 131.91 452.526 131.921 452.592 131.918C452.658 131.916 452.723 131.901 452.782 131.874L457.303 130.277C458.023 130.013 458.308 130.956 457.792 131.862L454.561 137.546C454.364 137.876 454.274 138.251 454.303 138.627L455.077 143.783C455.199 144.601 454.452 145.67 453.814 145.594L449.74 145.129C449.576 145.136 449.417 145.18 449.275 145.256C449.133 145.333 449.013 145.44 448.926 145.569L444.852 150.36C444.214 151.115 443.495 150.851 443.59 149.895L444.364 143.922C444.398 143.776 444.392 143.625 444.347 143.483C444.302 143.34 444.219 143.21 444.106 143.104L440.833 140.916C440.317 140.564 440.603 139.319 441.322 138.816L445.844 135.584C446.16 135.339 446.388 135.01 446.495 134.641L448.518 128.504C448.858 127.523 449.781 127.033 450.107 127.662Z" fill="#4066AF"/>
<path d="M472.986 115.526L475.009 119.513C475.032 119.57 475.068 119.622 475.115 119.665C475.161 119.709 475.217 119.743 475.278 119.765C475.339 119.788 475.405 119.798 475.471 119.796C475.537 119.793 475.601 119.778 475.661 119.752L480.182 118.142C480.902 117.891 481.187 118.821 480.671 119.727L477.399 125.411C477.2 125.745 477.111 126.125 477.141 126.505L477.915 131.648C478.037 132.465 477.29 133.534 476.652 133.471L472.578 133.006C472.415 133.007 472.254 133.047 472.111 133.122C471.969 133.197 471.849 133.304 471.764 133.434L467.69 138.225C467.052 138.979 466.333 138.715 466.428 137.76L467.202 131.786C467.234 131.641 467.228 131.49 467.183 131.348C467.138 131.205 467.056 131.075 466.944 130.969L463.671 128.781C463.155 128.441 463.44 127.196 464.16 126.681L468.682 123.449C468.998 123.204 469.226 122.875 469.333 122.506L471.356 116.369C471.737 115.401 472.66 114.898 472.986 115.526Z" fill="#4066AF"/>
<path d="M495.864 103.404L497.888 107.378C497.911 107.435 497.947 107.487 497.993 107.53C498.04 107.574 498.095 107.608 498.157 107.63C498.218 107.653 498.284 107.663 498.349 107.661C498.415 107.659 498.48 107.644 498.539 107.617L503.061 106.007C503.78 105.756 504.065 106.686 503.549 107.592L500.277 113.276C500.08 113.61 499.991 113.99 500.019 114.37L500.793 119.513C500.915 120.331 500.169 121.412 499.53 121.337L495.457 120.871C495.293 120.878 495.133 120.922 494.991 120.999C494.85 121.075 494.73 121.183 494.642 121.311L490.569 126.09C489.931 126.857 489.211 126.581 489.306 125.637L490.08 119.664C490.127 119.514 490.131 119.356 490.093 119.204C490.055 119.052 489.976 118.912 489.863 118.796L486.591 116.608C486.075 116.269 486.36 115.024 487.08 114.508L491.601 111.289C491.915 111.036 492.141 110.704 492.253 110.333L494.276 104.196C494.615 103.266 495.539 102.763 495.864 103.404Z" fill="#4066AF"/>
<path d="M518.744 91.2687L520.767 95.2425C520.79 95.2995 520.826 95.3514 520.873 95.3948C520.919 95.4383 520.974 95.4723 521.036 95.4948C521.097 95.5173 521.163 95.5277 521.229 95.5254C521.294 95.5231 521.359 95.5081 521.418 95.4814L525.94 93.8718C526.659 93.6202 526.945 94.5634 526.429 95.4563L523.156 101.191C522.96 101.525 522.87 101.905 522.898 102.285L523.672 107.428C523.794 108.245 523.048 109.327 522.41 109.251L518.336 108.786C518.172 108.793 518.012 108.837 517.871 108.914C517.729 108.99 517.609 109.098 517.522 109.226L513.448 114.005C512.81 114.772 512.09 114.495 512.185 113.552L512.959 107.579C512.993 107.434 512.987 107.283 512.942 107.14C512.897 106.997 512.814 106.867 512.701 106.762L509.429 104.573C508.913 104.221 509.198 102.976 509.918 102.461L514.439 99.2414C514.756 98.9965 514.983 98.6672 515.091 98.2983L517.114 92.1615C517.494 91.1303 518.377 90.6399 518.744 91.2687Z" fill="#455A64"/>
<path d="M423.82 118.871L417.032 115.25C416.897 115.194 416.783 115.102 416.706 114.986L415.457 112.974L419.53 110.823L419.408 111.15L423.82 118.871Z" fill="#4066AF"/>
<path opacity="0.2" d="M423.82 118.871L417.032 115.25C416.897 115.194 416.783 115.102 416.706 114.986L415.457 112.974L419.53 110.823L419.408 111.15L423.82 118.871Z" fill="black"/>
<path d="M418.892 111.125L423.59 118.67C423.655 118.779 423.754 118.868 423.873 118.925C423.992 118.983 424.127 119.008 424.261 118.996C424.395 118.984 424.522 118.936 424.627 118.858C424.732 118.78 424.81 118.675 424.852 118.557L429.808 105.315L418.892 111.125Z" fill="#4066AF"/>
<path d="M537.387 5.98234C537.325 4.92979 536.997 3.90547 536.428 2.99227C535.86 2.07908 535.067 1.30266 534.115 0.725831C533.101 0.248691 531.98 0 530.842 0C529.705 0 528.584 0.248691 527.57 0.725831L401.703 67.9664C400.75 68.5432 399.958 69.3196 399.389 70.2328C398.821 71.146 398.492 72.1703 398.431 73.2229V111.578C398.492 112.63 398.821 113.655 399.389 114.568C399.958 115.481 400.75 116.257 401.703 116.834C402.717 117.311 403.838 117.56 404.975 117.56C406.112 117.56 407.234 117.311 408.247 116.834L534.373 49.3925C537.319 47.8458 537.346 46.2864 537.346 44.3624L537.387 5.98234Z" fill="#4066AF"/>
<path opacity="0.2" d="M398.43 111.578C398.491 112.63 398.82 113.655 399.388 114.568C399.957 115.481 400.749 116.258 401.702 116.834C402.623 117.27 403.634 117.518 404.666 117.561C405.699 117.605 406.73 117.443 407.69 117.086C406.156 117.627 404.974 116.822 404.974 115.086V76.7189C405.014 75.6613 405.346 74.6308 405.938 73.7259L399.38 70.23C398.797 71.1378 398.47 72.1672 398.43 73.2229V111.578Z" fill="black"/>
<path opacity="0.4" d="M537.237 5.12792C536.857 3.87038 535.58 3.43024 534.073 4.23507L408.247 71.4756C407.276 72.0288 406.479 72.8096 405.939 73.7392L399.394 70.2306C399.946 69.3088 400.74 68.5304 401.702 67.9671L527.515 0.726538C528.531 0.255192 529.651 0.00976562 530.787 0.00976562C531.923 0.00976562 533.044 0.255192 534.06 0.726538C534.886 1.22024 535.594 1.8655 536.14 2.6225C536.687 3.3795 537.06 4.23218 537.237 5.12792Z" fill="white"/>
<path d="M413.827 77.3855L526.809 16.8602C527.909 16.2817 528.805 16.5458 528.805 17.4638C528.724 18.0293 528.501 18.5694 528.154 19.0411C527.808 19.5127 527.347 19.9027 526.809 20.1801L413.827 80.7054C412.741 81.2964 411.845 81.0323 411.845 80.1143C411.931 79.5504 412.155 79.0119 412.498 78.5393C412.841 78.0667 413.296 77.6722 413.827 77.3855Z" fill="white"/>
<path d="M413.827 94.5008L510.733 42.6902C511.832 42.0992 512.715 42.3633 512.715 43.2813C512.636 43.8459 512.416 44.3857 512.072 44.8574C511.728 45.3291 511.269 45.7195 510.733 45.9976L413.827 97.8207C412.741 98.3992 411.845 98.1351 411.845 97.2171C411.927 96.6536 412.149 96.1154 412.493 95.6443C412.837 95.1732 413.293 94.7819 413.827 94.5008Z" fill="white"/>
<path d="M413.827 102.825L524.501 43.5826C525.587 42.9916 526.483 43.2682 526.483 44.1737C526.396 44.7376 526.173 45.2761 525.83 45.7487C525.486 46.2213 525.032 46.6158 524.501 46.9025L413.827 106.145C412.741 106.736 411.845 106.472 411.845 105.554C411.931 104.99 412.155 104.452 412.498 103.979C412.841 103.506 413.296 103.112 413.827 102.825Z" fill="white"/>
<path d="M413.827 85.7606L524.501 26.5054C525.587 25.9143 526.483 26.191 526.483 27.109C526.394 27.6707 526.17 28.2067 525.827 28.677C525.484 29.1473 525.03 29.5398 524.501 29.8253L413.827 89.0679C412.741 89.6589 411.845 89.3948 411.845 88.4768C411.926 87.9131 412.148 87.3745 412.492 86.9032C412.836 86.432 413.293 86.0409 413.827 85.7606Z" fill="white"/>
<path d="M460.779 316.859L508.37 308.219C508.67 308.174 508.978 308.215 509.253 308.337C509.527 308.46 509.753 308.657 509.902 308.903C510.05 309.149 510.113 309.432 510.082 309.712C510.051 309.993 509.927 310.257 509.728 310.47L477.453 344.323L460.779 316.859Z" fill="#FFA8A7"/>
<path d="M509.755 310.47C509.954 310.257 510.078 309.993 510.109 309.712C510.14 309.432 510.077 309.149 509.929 308.903C509.781 308.657 509.554 308.46 509.28 308.337C509.005 308.215 508.697 308.174 508.397 308.219L499.083 309.942C500.358 310.674 501.39 311.717 502.065 312.958C502.741 314.198 503.034 315.587 502.911 316.972V317.751L509.755 310.47Z" fill="#4066AF"/>
<path d="M300.03 438.576L303.913 436.501L308.625 433.986L477.466 344.286C479.015 339.43 478.53 334.212 476.108 329.673C472.727 322.681 466.183 317.098 460.752 316.833L292.046 406.521L283.071 411.287C289.073 408.495 306.004 435.696 300.03 438.576Z" fill="#37474F"/>
<path d="M314.871 430.741L323.561 426.113C326.127 424.856 324.661 419.008 321.66 412.972C317.682 404.949 309.874 397.178 306.466 398.85L300.058 402.258L297.79 403.516C301.198 401.843 309.019 409.602 312.984 417.638C315.849 423.422 317.315 429.044 315.129 430.578C315.061 430.653 314.971 430.709 314.871 430.741Z" fill="#EBEBEB"/>
<path d="M317.03 429.571C322.991 426.641 305.923 399.391 299.949 402.333L291.246 406.936C297.206 404.018 314.328 431.244 308.313 434.174L317.03 429.571Z" fill="#4066AF"/>
<path d="M300.03 438.576L308.625 434.023C314.504 431.181 298.265 404.773 292.046 406.521C291.921 406.543 291.802 406.585 291.693 406.647L283.071 411.287C289.073 408.495 306.004 435.696 300.03 438.576Z" fill="#EBEBEB"/>
<path opacity="0.15" d="M509.972 308.986L508.37 308.219L473.841 325.712L295.292 420.605C294.953 420.115 294.681 420.077 294.464 420.417C299.542 427.748 303.371 436.979 300.031 438.588L303.914 436.513L308.626 433.998L477.467 344.298L509.741 310.445C509.941 310.255 510.07 310.012 510.112 309.75C510.153 309.488 510.104 309.221 509.972 308.986Z" fill="black"/>
<path d="M263.547 457.904L300.031 438.576C302.583 437.318 301.171 431.559 298.225 425.56C294.273 417.525 286.493 409.678 283.072 411.287L246.439 430.666C239.161 434.552 245.855 449.164 253.961 455.704C256.975 458.206 260.397 459.3 263.547 457.904Z" fill="#F28F8F"/>
<path opacity="0.1" d="M265.719 447.429C263.628 439.808 256.975 432.338 250.851 430.741C249.952 430.447 248.99 430.356 248.045 430.476C247.1 430.596 246.2 430.924 245.42 431.433C239.989 436.149 246.33 449.554 254.001 455.741C256.948 458.155 260.247 459.237 263.397 457.967C266.086 456.483 267.186 452.585 265.719 447.429Z" fill="black"/>
</svg>
